<?xml version="1.0" encoding="UTF-8" standalone="no" ?>
<!DOCTYPE svg PUBLIC "-//W3C//DTD SVG 1.1//EN" "http://www.w3.org/Graphics/SVG/1.1/DTD/svg11.dtd">
<svg xmlns="http://www.w3.org/2000/svg" xmlns:xlink="http://www.w3.org/1999/xlink" version="1.1" width="1080" height="1080" viewBox="0 0 1080 1080" xml:space="preserve">
<desc>Created with Fabric.js 5.2.4</desc>
<defs>
</defs>
<g transform="matrix(1 0 0 1 540 540)" id="a8933d6b-088a-4e2a-a170-c7319be59e99"  >
<rect style="stroke: none; stroke-width: 1; stroke-dasharray: none; stroke-linecap: butt; stroke-dashoffset: 0; stroke-linejoin: miter; stroke-miterlimit: 4; fill: rgb(255,255,255); fill-rule: nonzero; opacity: 1; visibility: hidden;" vector-effect="non-scaling-stroke"  x="-540" y="-540" rx="0" ry="0" width="1080" height="1080" />
</g>
<g transform="matrix(1 0 0 1 540 540)" id="6ed779f6-e97c-4ef6-a95e-a2128599f5fd"  >
</g>
<g transform="matrix(1 0 0 1 540.5 540.5)" style="" id="6ad9c42a-c9e2-486d-9098-c257826e50d9"  >
		<text xml:space="preserve" font-family="Raleway" font-size="105" font-style="normal" font-weight="900" style="stroke: none; stroke-width: 1; stroke-dasharray: none; stroke-linecap: butt; stroke-dashoffset: 0; stroke-linejoin: miter; stroke-miterlimit: 4; fill: rgb(0,0,0); fill-rule: nonzero; opacity: 1; white-space: pre;" ><tspan x="-145.95" y="32.98" >ACME</tspan></text>
</g>
<g transform="matrix(1 0 0 1 271.99 735.33)" id="464e9018-cf17-4460-8bc7-652b8236e038"  >
<path style="stroke: rgb(0,0,0); stroke-width: 0; stroke-dasharray: none; stroke-linecap: butt; stroke-dashoffset: 0; stroke-linejoin: miter; stroke-miterlimit: 4; fill: rgb(101,101,101); fill-rule: nonzero; opacity: 1;" vector-effect="non-scaling-stroke"  transform=" translate(-50, -50)" d="M 75.273 39.302 C 77.09599999999999 38.496 81.551 36.296 83.91 33.185 C 86.916 29.268 86.701 27.926000000000002 86.701 27.926000000000002 L 76.34599999999999 29.804000000000002 L 73.61099999999999 27.497000000000003 L 74.36099999999999 25.297000000000004 L 84.23599999999999 23.258000000000003 C 84.23599999999999 23.258000000000003 80.21 19.930000000000003 75.59599999999999 19.072000000000003 C 71.24799999999999 18.213 65.66899999999998 19.179000000000002 63.52099999999999 23.847 L 63.52099999999999 23.794 C 63.52099999999999 23.794 62.448999999999984 26.047 62.289999999999985 27.55 C 62.127999999999986 29 61.37699999999999 32.166 59.978999999999985 34.688 C 58.79999999999998 36.78 57.512999999999984 39.195 54.292999999999985 42.359 L 53.43499999999999 41.501000000000005 L 53.057999999999986 41.82300000000001 L 42.111 30.503 C 39.214999999999996 21.112000000000002 53.327999999999996 23.688 59.39 24.44 C 44.688 10.328000000000001 28.858 17.035 21.024 33.293 C 19.092000000000002 35.653999999999996 14.907 33.775 12.546000000000001 38.66 C 13.886000000000001 42.416 19.681 46.117 22.955000000000002 47.297999999999995 C 27.087000000000003 44.882 26.175 40.483 27.194000000000003 37.318 C 30.307000000000002 34.741 32.775000000000006 35.601 35.725 37.693 L 47.423 47.190999999999995 L 47.101 47.513 L 47.637 48.103 C 39.052 55.187 22.955000000000002 68.226 21.077 69.727 C 18.770000000000003 71.60600000000001 14.745000000000001 75.14800000000001 19.145000000000003 79.654 C 23.598000000000003 84.161 27.783 81.372 29.125000000000004 80.03 C 30.092000000000002 79.119 44.955000000000005 64.792 54.397000000000006 55.775999999999996 L 78.543 83.25 L 87.44900000000001 74.664 L 61.376 49.229 C 61.698 48.907 61.964 48.638 62.071 48.586 C 63.361 47.512 65.454 45.044 70.925 43.434 L 76.937 44.186 L 77.044 43.702 L 75.273 39.302 z" stroke-linecap="round" />
</g>
<g transform="matrix(1 0 0 1 415.08 730.79)"  >
<g style="" vector-effect="non-scaling-stroke"   >
		<g transform="matrix(1 0 0 1 0 -12.72)"  >
<path style="stroke: none; stroke-width: 1; stroke-dasharray: none; stroke-linecap: butt; stroke-dashoffset: 0; stroke-linejoin: miter; stroke-miterlimit: 4; fill: rgb(101,101,101); fill-rule: nonzero; opacity: 1;" vector-effect="non-scaling-stroke"  transform=" translate(-50, -37.28)" d="M 22.525 24.787 L 28.976 24.787 L 28.976 13.441 L 71.025 13.441 L 71.025 24.786 L 77.479 24.786 C 82.786 24.786 87.157 29.105 87.157 34.465 L 87.157 51.431000000000004 C 87.157 56.737 82.786 61.111000000000004 77.479 61.111000000000004 L 73.628 61.111000000000004 L 73.628 46.539 L 26.376 46.539 L 26.376 61.112 L 22.525000000000002 61.112 C 17.215000000000003 61.112 12.844000000000003 56.738 12.844000000000003 51.432 L 12.844000000000003 34.466 C 12.844 29.105 17.215 24.787 22.525 24.787 z" stroke-linecap="round" />
</g>
		<g transform="matrix(1 0 0 1 0 17.36)"  >
<path style="stroke: none; stroke-width: 1; stroke-dasharray: none; stroke-linecap: butt; stroke-dashoffset: 0; stroke-linejoin: miter; stroke-miterlimit: 4; fill: rgb(101,101,101); fill-rule: nonzero; opacity: 1;" vector-effect="non-scaling-stroke"  transform=" translate(-50, -67.35)" d="M 29.603 48.152 L 72.22200000000001 48.152 L 72.22200000000001 86.55799999999999 L 27.78200000000001 86.55799999999999 L 27.78200000000001 48.152 L 29.603 48.152 z M 68.579 51.795 L 31.425 51.795 L 31.425 82.862 L 68.57900000000001 82.862 L 68.57900000000001 51.795 z" stroke-linecap="round" />
</g>
		<g transform="matrix(1 0 0 1 -2.22 6.74)"  >
<rect style="stroke: none; stroke-width: 1; stroke-dasharray: none; stroke-linecap: butt; stroke-dashoffset: 0; stroke-linejoin: miter; stroke-miterlimit: 4; fill: rgb(101,101,101); fill-rule: nonzero; opacity: 1;" vector-effect="non-scaling-stroke"  x="-12.397" y="-1.303" rx="0" ry="0" width="24.794" height="2.606" />
</g>
		<g transform="matrix(1 0 0 1 -5.09 11.95)"  >
<rect style="stroke: none; stroke-width: 1; stroke-dasharray: none; stroke-linecap: butt; stroke-dashoffset: 0; stroke-linejoin: miter; stroke-miterlimit: 4; fill: rgb(101,101,101); fill-rule: nonzero; opacity: 1;" vector-effect="non-scaling-stroke"  x="-9.529" y="-1.305" rx="0" ry="0" width="19.058" height="2.61" />
</g>
		<g transform="matrix(1 0 0 1 -1.62 17.2)"  >
<rect style="stroke: none; stroke-width: 1; stroke-dasharray: none; stroke-linecap: butt; stroke-dashoffset: 0; stroke-linejoin: miter; stroke-miterlimit: 4; fill: rgb(101,101,101); fill-rule: nonzero; opacity: 1;" vector-effect="non-scaling-stroke"  x="-13.0015" y="-1.305" rx="0" ry="0" width="26.003" height="2.61" />
</g>
		<g transform="matrix(1 0 0 1 -3.43 22.41)"  >
<rect style="stroke: none; stroke-width: 1; stroke-dasharray: none; stroke-linecap: butt; stroke-dashoffset: 0; stroke-linejoin: miter; stroke-miterlimit: 4; fill: rgb(101,101,101); fill-rule: nonzero; opacity: 1;" vector-effect="non-scaling-stroke"  x="-11.189" y="-1.305" rx="0" ry="0" width="22.378" height="2.61" />
</g>
</g>
</g>
<g transform="matrix(1 0 0 1 569.53 744.42)"  >
<g style="" vector-effect="non-scaling-stroke"   >
		<g transform="matrix(1 0 0 1 0 11.97)"  >
<path style="stroke: none; stroke-width: 1; stroke-dasharray: none; stroke-linecap: butt; stroke-dashoffset: 0; stroke-linejoin: miter; stroke-miterlimit: 4; fill: rgb(101,101,101); fill-rule: nonzero; opacity: 1;" vector-effect="non-scaling-stroke"  transform=" translate(-50, -61.97)" d="M 81.389 41.474 L 74.557 41.474 C 74.458 45.013999999999996 71.607 47.913 68.018 47.913 C 64.478 47.913 61.577 45.013999999999996 61.53 41.474 L 38.521 41.474 C 38.472 45.013999999999996 35.572 47.913 31.981 47.913 C 28.441000000000003 47.913 25.542 45.013999999999996 25.493000000000002 41.474 L 18.659000000000002 41.474 C 15.610000000000003 41.474 13.104000000000003 43.980999999999995 13.104000000000003 47.028999999999996 C 13.104000000000003 49.928999999999995 15.414000000000003 52.339 18.266000000000002 52.535 L 25.542 79.87 C 25.886000000000003 81.245 26.721 82.474 28.147000000000002 82.474 L 70.869 82.474 C 72.346 82.474 73.082 81.245 73.524 79.87 L 81.783 52.535000000000004 C 84.635 52.339000000000006 86.897 49.929 86.897 47.029 C 86.896 43.981 84.438 41.474 81.389 41.474 z M 63.839 68.809 C 64.625 68.809 65.265 69.448 65.265 70.233 C 65.265 71.021 64.625 71.66000000000001 63.839 71.66000000000001 L 36.21 71.66000000000001 C 35.422000000000004 71.66000000000001 34.784 71.02100000000002 34.784 70.233 C 34.784 69.44800000000001 35.422 68.809 36.21 68.809 M 67.87 65.465 L 32.177 65.465 C 31.391 65.465 30.753 64.825 30.753 64.039 C 30.753 63.253 31.392 62.613 32.177 62.613 L 67.87 62.613 C 68.656 62.613 69.296 63.253 69.296 64.039 C 69.296 64.825 68.656 65.465 67.87 65.465 z M 71.557 58.827 L 28.492 58.827 C 27.704 58.827 27.066000000000003 58.189 27.066000000000003 57.400999999999996 C 27.066000000000003 56.614999999999995 27.705000000000002 56.025999999999996 28.492 56.025999999999996 L 71.556 56.025999999999996 C 72.344 56.025999999999996 72.983 56.614999999999995 72.983 57.400999999999996 C 72.983 58.189 72.345 58.827 71.557 58.827 z" stroke-linecap="round" />
</g>
		<g transform="matrix(1 0 0 1 -12.05 -18.69)"  >
<path style="stroke: none; stroke-width: 1; stroke-dasharray: none; stroke-linecap: butt; stroke-dashoffset: 0; stroke-linejoin: miter; stroke-miterlimit: 4; fill: rgb(101,101,101); fill-rule: nonzero; opacity: 1;" vector-effect="non-scaling-stroke"  transform=" translate(-37.95, -31.31)" d="M 30.243 44.579 L 30.314 44.621 C 31.977 45.579 34.105 45.011 35.063 43.347 L 46.936 22.783 C 47.898 21.12 47.327 18.994 45.664 18.034000000000002 L 45.591 17.992 C 43.928000000000004 17.032 41.802 17.603 40.842 19.266000000000002 L 28.97 39.83 C 28.011 41.493 28.58 43.618 30.243 44.579 z" stroke-linecap="round" />
</g>
		<g transform="matrix(1 0 0 1 12.07 -18.69)"  >
<path style="stroke: none; stroke-width: 1; stroke-dasharray: none; stroke-linecap: butt; stroke-dashoffset: 0; stroke-linejoin: miter; stroke-miterlimit: 4; fill: rgb(101,101,101); fill-rule: nonzero; opacity: 1;" vector-effect="non-scaling-stroke"  transform=" translate(-62.07, -31.31)" d="M 64.96 43.347 C 65.919 45.011 68.04599999999999 45.579 69.70899999999999 44.621 L 69.77999999999999 44.579 C 71.44299999999998 43.619 72.01399999999998 41.493 71.05299999999998 39.83 L 59.182 19.265 C 58.221000000000004 17.602 56.096000000000004 17.031 54.433 17.991 L 54.36 18.033 C 52.697 18.993000000000002 52.128 21.119 53.089 22.782 L 64.96 43.347 z" stroke-linecap="round" />
</g>
</g>
</g>
<g transform="matrix(1 0 0 1 751.23 739.87)" id="28393dfc-0744-464c-99b1-f8cd0ee4b9c2"  >
<path style="stroke: rgb(0,0,0); stroke-width: 0; stroke-dasharray: none; stroke-linecap: butt; stroke-dashoffset: 0; stroke-linejoin: miter; stroke-miterlimit: 4; fill: rgb(101,101,101); fill-rule: nonzero; opacity: 1;" vector-effect="non-scaling-stroke"  transform=" translate(-50, -50)" d="M 73.525 14.28 L 54.611000000000004 17.424 L 14.153 57.885 L 41.989 85.721 L 82.702 45.005 L 85.847 26.652 L 73.525 14.28 z M 47.565 71.98 L 27.893 52.306 L 30.531 49.671 L 50.203 69.343 L 47.565 71.98 z M 53.092 66.503 L 33.368 46.78 L 36.005 44.195 L 55.67700000000001 63.866 L 53.092 66.503 z M 71.395 33.698 L 66.682 28.984 L 71.395 24.268 L 76.164 28.984 L 71.395 33.698 z" stroke-linecap="round" />
</g>
</svg>