<svg width="1245" height="865" xmlns="http://www.w3.org/2000/svg" xmlns:xlink="http://www.w3.org/1999/xlink" xml:space="preserve" overflow="hidden"><defs><clipPath id="clip0"><rect x="640" y="856" width="1245" height="865"/></clipPath><clipPath id="clip1"><rect x="1697" y="1514" width="189" height="208"/></clipPath><clipPath id="clip2"><rect x="1697" y="1514" width="189" height="208"/></clipPath><clipPath id="clip3"><rect x="1345" y="1514" width="189" height="208"/></clipPath><clipPath id="clip4"><rect x="1345" y="1514" width="189" height="208"/></clipPath><clipPath id="clip5"><rect x="992" y="1514" width="189" height="208"/></clipPath><clipPath id="clip6"><rect x="992" y="1514" width="189" height="208"/></clipPath><clipPath id="clip7"><rect x="640" y="1514" width="189" height="208"/></clipPath><clipPath id="clip8"><rect x="640" y="1514" width="189" height="208"/></clipPath><clipPath id="clip9"><rect x="640" y="855" width="1246" height="569"/></clipPath><clipPath id="clip10"><rect x="640" y="855" width="1246" height="569"/></clipPath></defs><g clip-path="url(#clip0)" transform="translate(-640 -856)"><g clip-path="url(#clip1)"><g clip-path="url(#clip2)"><text fill="#A1B5D8" font-family="Arial,Arial_MSFontService,sans-serif" font-weight="700" font-size="144" transform="matrix(2.29075 0 0 2.29394 764.45 1262)">ACME</text><path d="M680.955 1659.95C685.131 1658.1 695.337 1653.06 700.74 1645.94 707.627 1636.97 707.134 1633.89 707.134 1633.89L683.413 1638.19 677.148 1632.91 678.866 1627.87 701.487 1623.2C701.487 1623.2 692.265 1615.57 681.695 1613.61 671.735 1611.64 658.955 1613.85 654.034 1624.55L654.034 1624.43C654.034 1624.43 651.579 1629.59 651.214 1633.03 650.843 1636.35 649.123 1643.6 645.921 1649.38 643.22 1654.17 640.272 1659.71 632.895 1666.95L630.93 1664.99 630.066 1665.73 604.989 1639.79C598.355 1618.28 630.685 1624.18 644.571 1625.91 610.893 1593.58 574.63 1608.94 556.684 1646.19 552.259 1651.59 542.672 1647.29 537.263 1658.48 540.333 1667.08 553.608 1675.56 561.108 1678.27 570.573 1672.73 568.484 1662.66 570.818 1655.41 577.949 1649.5 583.603 1651.47 590.361 1656.27L617.158 1678.02 616.42 1678.76 617.648 1680.11C597.982 1696.34 561.108 1726.21 556.806 1729.65 551.521 1733.95 542.301 1742.07 552.38 1752.39 562.581 1762.71 572.168 1756.32 575.242 1753.25 577.457 1751.16 611.504 1718.34 633.134 1697.69L688.446 1760.62 708.847 1740.96 649.121 1682.69C649.858 1681.95 650.468 1681.34 650.713 1681.22 653.668 1678.76 658.462 1673.1 670.995 1669.42L684.767 1671.14 685.012 1670.03 680.955 1659.95Z" fill="#656565" transform="matrix(1 0 0 1.00139 68.0623 -70.942)"/><path d="M887.906 1616.3 902.684 1616.3 902.684 1590.31 999.008 1590.31 999.008 1616.3 1013.79 1616.3C1025.95 1616.3 1035.96 1626.19 1035.96 1638.47L1035.96 1677.34C1035.96 1689.49 1025.95 1699.51 1013.79 1699.51L1004.97 1699.51 1004.97 1666.13 896.728 1666.13 896.728 1699.51 887.906 1699.51C875.742 1699.51 865.73 1689.49 865.73 1677.34L865.73 1638.47C865.73 1626.19 875.742 1616.3 887.906 1616.3Z" fill="#656565" transform="matrix(1 0 0 1.00139 68.0623 -70.942)"/><path d="M904.12 1669.85 1001.75 1669.85 1001.75 1757.83 899.949 1757.83 899.949 1669.85 904.12 1669.85ZM993.404 1678.19 908.294 1678.19 908.294 1749.36 993.404 1749.36 993.404 1678.19Z" fill="#656565" transform="matrix(1 0 0 1.00139 68.0623 -70.942)"/><path d="M917.361 1686.51 974.158 1686.51 974.158 1692.48 917.361 1692.48Z" fill="#656565" transform="matrix(1 0 0 1.00139 68.0623 -70.942)"/><path d="M917.356 1698.44 961.013 1698.44 961.013 1704.42 917.356 1704.42Z" fill="#656565" transform="matrix(1 0 0 1.00139 68.0623 -70.942)"/><path d="M917.35 1710.47 976.917 1710.47 976.917 1716.45 917.35 1716.45Z" fill="#656565" transform="matrix(1 0 0 1.00139 68.0623 -70.942)"/><path d="M917.356 1722.4 968.619 1722.4 968.619 1728.38 917.356 1728.38Z" fill="#656565" transform="matrix(1 0 0 1.00139 68.0623 -70.942)"/><path d="M1376.56 1685.75 1360.9 1685.75C1360.68 1693.86 1354.15 1700.5 1345.93 1700.5 1337.82 1700.5 1331.17 1693.86 1331.06 1685.75L1278.36 1685.75C1278.24 1693.86 1271.6 1700.5 1263.37 1700.5 1255.26 1700.5 1248.62 1693.86 1248.51 1685.75L1232.86 1685.75C1225.87 1685.75 1220.13 1691.49 1220.13 1698.47 1220.13 1705.12 1225.42 1710.64 1231.96 1711.09L1248.62 1773.71C1249.41 1776.85 1251.32 1779.67 1254.59 1779.67L1352.46 1779.67C1355.84 1779.67 1357.53 1776.85 1358.54 1773.71L1377.46 1711.09C1383.99 1710.64 1389.17 1705.12 1389.17 1698.47 1389.17 1691.49 1383.54 1685.75 1376.56 1685.75ZM1336.35 1748.37C1338.15 1748.37 1339.62 1749.83 1339.62 1751.63 1339.62 1753.43 1338.15 1754.9 1336.35 1754.9L1273.06 1754.9C1271.26 1754.9 1269.8 1753.43 1269.8 1751.63 1269.8 1749.83 1271.26 1748.37 1273.06 1748.37M1345.59 1740.71 1263.82 1740.71C1262.02 1740.71 1260.56 1739.24 1260.56 1737.44 1260.56 1735.64 1262.02 1734.17 1263.82 1734.17L1345.59 1734.17C1347.39 1734.17 1348.85 1735.64 1348.85 1737.44 1348.85 1739.24 1347.39 1740.71 1345.59 1740.71ZM1354.03 1725.5 1255.38 1725.5C1253.58 1725.5 1252.11 1724.04 1252.11 1722.23 1252.11 1720.43 1253.58 1719.08 1255.38 1719.08L1354.03 1719.08C1355.84 1719.08 1357.3 1720.43 1357.3 1722.23 1357.3 1724.04 1355.84 1725.5 1354.03 1725.5Z" fill="#656565" transform="matrix(1 0 0 1.00139 68.0623 -70.942)"/><path d="M1259.39 1692.86 1259.56 1692.96C1263.36 1695.15 1268.24 1693.85 1270.43 1690.04L1297.63 1642.93C1299.84 1639.12 1298.53 1634.25 1294.72 1632.05L1294.55 1631.96C1290.74 1629.76 1285.87 1631.07 1283.67 1634.88L1256.48 1681.98C1254.28 1685.79 1255.58 1690.66 1259.39 1692.86Z" fill="#656565" transform="matrix(1 0 0 1.00139 68.0623 -70.942)"/><path d="M1338.92 1690.04C1341.12 1693.85 1345.99 1695.15 1349.8 1692.96L1349.96 1692.86C1353.77 1690.66 1355.08 1685.79 1352.88 1681.98L1325.68 1634.87C1323.48 1631.06 1318.62 1629.76 1314.81 1631.96L1314.64 1632.05C1310.83 1634.25 1309.53 1639.12 1311.73 1642.93L1338.92 1690.04Z" fill="#656565" transform="matrix(1 0 0 1.00139 68.0623 -70.942)"/><path d="M1774.77 1613.03 1731.44 1620.23 1638.76 1712.92 1702.53 1776.69 1795.79 1683.42 1803 1641.37 1774.77 1613.03ZM1715.3 1745.21 1670.24 1700.14 1676.28 1694.1 1721.35 1739.17 1715.3 1745.21ZM1727.96 1732.66 1682.78 1687.48 1688.82 1681.56 1733.88 1726.62 1727.96 1732.66ZM1769.89 1657.51 1759.09 1646.71 1769.89 1635.91 1780.82 1646.71 1769.89 1657.51Z" fill="#656565" transform="matrix(1 0 0 1.00139 68.0623 -70.942)"/></g></g><g clip-path="url(#clip3)"><g clip-path="url(#clip4)"><text fill="#A1B5D8" font-family="Arial,Arial_MSFontService,sans-serif" font-weight="700" font-size="144" transform="matrix(2.29075 0 0 2.29394 831.003 1248)">ACME</text><path d="M680.955 1659.95C685.131 1658.1 695.337 1653.06 700.74 1645.94 707.627 1636.97 707.134 1633.89 707.134 1633.89L683.413 1638.19 677.148 1632.91 678.866 1627.87 701.487 1623.2C701.487 1623.2 692.265 1615.57 681.695 1613.61 671.735 1611.64 658.955 1613.85 654.034 1624.55L654.034 1624.43C654.034 1624.43 651.579 1629.59 651.214 1633.03 650.843 1636.35 649.123 1643.6 645.921 1649.38 643.22 1654.17 640.272 1659.71 632.895 1666.95L630.93 1664.99 630.066 1665.73 604.989 1639.79C598.355 1618.28 630.685 1624.18 644.571 1625.91 610.893 1593.58 574.63 1608.94 556.684 1646.19 552.259 1651.59 542.672 1647.29 537.263 1658.48 540.333 1667.08 553.608 1675.56 561.108 1678.27 570.573 1672.73 568.484 1662.66 570.818 1655.41 577.949 1649.5 583.603 1651.47 590.361 1656.27L617.158 1678.02 616.42 1678.76 617.648 1680.11C597.982 1696.34 561.108 1726.21 556.806 1729.65 551.521 1733.95 542.301 1742.07 552.38 1752.39 562.581 1762.71 572.168 1756.32 575.242 1753.25 577.457 1751.16 611.504 1718.34 633.134 1697.69L688.446 1760.62 708.847 1740.96 649.121 1682.69C649.858 1681.95 650.468 1681.34 650.713 1681.22 653.668 1678.76 658.462 1673.1 670.995 1669.42L684.767 1671.14 685.012 1670.03 680.955 1659.95Z" fill="#656565" transform="matrix(1 0 0 1.00139 134.615 -85.1626)"/><path d="M887.906 1616.3 902.684 1616.3 902.684 1590.31 999.008 1590.31 999.008 1616.3 1013.79 1616.3C1025.95 1616.3 1035.96 1626.19 1035.96 1638.47L1035.96 1677.34C1035.96 1689.49 1025.95 1699.51 1013.79 1699.51L1004.97 1699.51 1004.97 1666.13 896.728 1666.13 896.728 1699.51 887.906 1699.51C875.742 1699.51 865.73 1689.49 865.73 1677.34L865.73 1638.47C865.73 1626.19 875.742 1616.3 887.906 1616.3Z" fill="#656565" transform="matrix(1 0 0 1.00139 134.615 -85.1626)"/><path d="M904.12 1669.85 1001.75 1669.85 1001.75 1757.83 899.949 1757.83 899.949 1669.85 904.12 1669.85ZM993.404 1678.19 908.294 1678.19 908.294 1749.36 993.404 1749.36 993.404 1678.19Z" fill="#656565" transform="matrix(1 0 0 1.00139 134.615 -85.1626)"/><path d="M917.361 1686.51 974.158 1686.51 974.158 1692.48 917.361 1692.48Z" fill="#656565" transform="matrix(1 0 0 1.00139 134.615 -85.1626)"/><path d="M917.356 1698.44 961.013 1698.44 961.013 1704.42 917.356 1704.42Z" fill="#656565" transform="matrix(1 0 0 1.00139 134.615 -85.1626)"/><path d="M917.35 1710.47 976.917 1710.47 976.917 1716.45 917.35 1716.45Z" fill="#656565" transform="matrix(1 0 0 1.00139 134.615 -85.1626)"/><path d="M917.356 1722.4 968.619 1722.4 968.619 1728.38 917.356 1728.38Z" fill="#656565" transform="matrix(1 0 0 1.00139 134.615 -85.1626)"/><path d="M1376.56 1685.75 1360.9 1685.75C1360.68 1693.86 1354.15 1700.5 1345.93 1700.5 1337.82 1700.5 1331.17 1693.86 1331.06 1685.75L1278.36 1685.75C1278.24 1693.86 1271.6 1700.5 1263.37 1700.5 1255.26 1700.5 1248.62 1693.86 1248.51 1685.75L1232.86 1685.75C1225.87 1685.75 1220.13 1691.49 1220.13 1698.47 1220.13 1705.12 1225.42 1710.64 1231.96 1711.09L1248.62 1773.71C1249.41 1776.85 1251.32 1779.67 1254.59 1779.67L1352.46 1779.67C1355.84 1779.67 1357.53 1776.85 1358.54 1773.71L1377.46 1711.09C1383.99 1710.64 1389.17 1705.12 1389.17 1698.47 1389.17 1691.49 1383.54 1685.75 1376.56 1685.75ZM1336.35 1748.37C1338.15 1748.37 1339.62 1749.83 1339.62 1751.63 1339.62 1753.43 1338.15 1754.9 1336.35 1754.9L1273.06 1754.9C1271.26 1754.9 1269.8 1753.43 1269.8 1751.63 1269.8 1749.83 1271.26 1748.37 1273.06 1748.37M1345.59 1740.71 1263.82 1740.71C1262.02 1740.71 1260.56 1739.24 1260.56 1737.44 1260.56 1735.64 1262.02 1734.17 1263.82 1734.17L1345.59 1734.17C1347.39 1734.17 1348.85 1735.64 1348.85 1737.44 1348.85 1739.24 1347.39 1740.71 1345.59 1740.71ZM1354.03 1725.5 1255.38 1725.5C1253.58 1725.5 1252.11 1724.04 1252.11 1722.23 1252.11 1720.43 1253.58 1719.08 1255.38 1719.08L1354.03 1719.08C1355.84 1719.08 1357.3 1720.43 1357.3 1722.23 1357.3 1724.04 1355.84 1725.5 1354.03 1725.5Z" fill="#656565" transform="matrix(1 0 0 1.00139 134.615 -85.1626)"/><path d="M1259.39 1692.86 1259.56 1692.96C1263.36 1695.15 1268.24 1693.85 1270.43 1690.04L1297.63 1642.93C1299.84 1639.12 1298.53 1634.25 1294.72 1632.05L1294.55 1631.96C1290.74 1629.76 1285.87 1631.07 1283.67 1634.88L1256.48 1681.98C1254.28 1685.79 1255.58 1690.66 1259.39 1692.86Z" fill="#656565" transform="matrix(1 0 0 1.00139 134.615 -85.1626)"/><path d="M1338.92 1690.04C1341.12 1693.85 1345.99 1695.15 1349.8 1692.96L1349.96 1692.86C1353.77 1690.66 1355.08 1685.79 1352.88 1681.98L1325.68 1634.87C1323.48 1631.06 1318.62 1629.76 1314.81 1631.96L1314.64 1632.05C1310.83 1634.25 1309.53 1639.12 1311.73 1642.93L1338.92 1690.04Z" fill="#656565" transform="matrix(1 0 0 1.00139 134.615 -85.1626)"/><path d="M1774.77 1613.03 1731.44 1620.23 1638.76 1712.92 1702.53 1776.69 1795.79 1683.42 1803 1641.37 1774.77 1613.03ZM1715.3 1745.21 1670.24 1700.14 1676.28 1694.1 1721.35 1739.17 1715.3 1745.21ZM1727.96 1732.66 1682.78 1687.48 1688.82 1681.56 1733.88 1726.62 1727.96 1732.66ZM1769.89 1657.51 1759.09 1646.71 1769.89 1635.91 1780.82 1646.71 1769.89 1657.51Z" fill="#656565" transform="matrix(1 0 0 1.00139 134.615 -85.1626)"/></g></g><g clip-path="url(#clip5)"><g clip-path="url(#clip6)"><text fill="#A1B5D8" font-family="Arial,Arial_MSFontService,sans-serif" font-weight="700" font-size="144" transform="matrix(2.29075 0 0 2.29394 832.727 1283)">ACME</text><path d="M680.955 1659.95C685.131 1658.1 695.337 1653.06 700.74 1645.94 707.627 1636.97 707.134 1633.89 707.134 1633.89L683.413 1638.19 677.148 1632.91 678.866 1627.87 701.487 1623.2C701.487 1623.2 692.265 1615.57 681.695 1613.61 671.735 1611.64 658.955 1613.85 654.034 1624.55L654.034 1624.43C654.034 1624.43 651.579 1629.59 651.214 1633.03 650.843 1636.35 649.123 1643.6 645.921 1649.38 643.22 1654.17 640.272 1659.71 632.895 1666.95L630.93 1664.99 630.066 1665.73 604.989 1639.79C598.355 1618.28 630.685 1624.18 644.571 1625.91 610.893 1593.58 574.63 1608.94 556.684 1646.19 552.259 1651.59 542.672 1647.29 537.263 1658.48 540.333 1667.08 553.608 1675.56 561.108 1678.27 570.573 1672.73 568.484 1662.66 570.818 1655.41 577.949 1649.5 583.603 1651.47 590.361 1656.27L617.158 1678.02 616.42 1678.76 617.648 1680.11C597.982 1696.34 561.108 1726.21 556.806 1729.65 551.521 1733.95 542.301 1742.07 552.38 1752.39 562.581 1762.71 572.168 1756.32 575.242 1753.25 577.457 1751.16 611.504 1718.34 633.134 1697.69L688.446 1760.62 708.847 1740.96 649.121 1682.69C649.858 1681.95 650.468 1681.34 650.713 1681.22 653.668 1678.76 658.462 1673.1 670.995 1669.42L684.767 1671.14 685.012 1670.03 680.955 1659.95Z" fill="#656565" transform="matrix(1 0 0 1.00139 136.339 -49.6359)"/><path d="M887.906 1616.3 902.684 1616.3 902.684 1590.31 999.008 1590.31 999.008 1616.3 1013.79 1616.3C1025.95 1616.3 1035.96 1626.19 1035.96 1638.47L1035.96 1677.34C1035.96 1689.49 1025.95 1699.51 1013.79 1699.51L1004.97 1699.51 1004.97 1666.13 896.728 1666.13 896.728 1699.51 887.906 1699.51C875.742 1699.51 865.73 1689.49 865.73 1677.34L865.73 1638.47C865.73 1626.19 875.742 1616.3 887.906 1616.3Z" fill="#656565" transform="matrix(1 0 0 1.00139 136.339 -49.6359)"/><path d="M904.12 1669.85 1001.75 1669.85 1001.75 1757.83 899.949 1757.83 899.949 1669.85 904.12 1669.85ZM993.404 1678.19 908.294 1678.19 908.294 1749.36 993.404 1749.36 993.404 1678.19Z" fill="#656565" transform="matrix(1 0 0 1.00139 136.339 -49.6359)"/><path d="M917.361 1686.51 974.158 1686.51 974.158 1692.48 917.361 1692.48Z" fill="#656565" transform="matrix(1 0 0 1.00139 136.339 -49.6359)"/><path d="M917.356 1698.44 961.013 1698.44 961.013 1704.42 917.356 1704.42Z" fill="#656565" transform="matrix(1 0 0 1.00139 136.339 -49.6359)"/><path d="M917.35 1710.47 976.917 1710.47 976.917 1716.45 917.35 1716.45Z" fill="#656565" transform="matrix(1 0 0 1.00139 136.339 -49.6359)"/><path d="M917.356 1722.4 968.619 1722.4 968.619 1728.38 917.356 1728.38Z" fill="#656565" transform="matrix(1 0 0 1.00139 136.339 -49.6359)"/><path d="M1376.56 1685.75 1360.9 1685.75C1360.68 1693.86 1354.15 1700.5 1345.93 1700.5 1337.82 1700.5 1331.17 1693.86 1331.06 1685.75L1278.36 1685.75C1278.24 1693.86 1271.6 1700.5 1263.37 1700.5 1255.26 1700.5 1248.62 1693.86 1248.51 1685.75L1232.86 1685.75C1225.87 1685.75 1220.13 1691.49 1220.13 1698.47 1220.13 1705.12 1225.42 1710.64 1231.96 1711.09L1248.62 1773.71C1249.41 1776.85 1251.32 1779.67 1254.59 1779.67L1352.46 1779.67C1355.84 1779.67 1357.53 1776.85 1358.54 1773.71L1377.46 1711.09C1383.99 1710.64 1389.17 1705.12 1389.17 1698.47 1389.17 1691.49 1383.54 1685.75 1376.56 1685.75ZM1336.35 1748.37C1338.15 1748.37 1339.62 1749.83 1339.62 1751.63 1339.62 1753.43 1338.15 1754.9 1336.35 1754.9L1273.06 1754.9C1271.26 1754.9 1269.8 1753.43 1269.8 1751.63 1269.8 1749.83 1271.26 1748.37 1273.06 1748.37M1345.59 1740.71 1263.82 1740.71C1262.02 1740.71 1260.56 1739.24 1260.56 1737.44 1260.56 1735.64 1262.02 1734.17 1263.82 1734.17L1345.59 1734.17C1347.39 1734.17 1348.85 1735.64 1348.85 1737.44 1348.85 1739.24 1347.39 1740.71 1345.59 1740.71ZM1354.03 1725.5 1255.38 1725.5C1253.58 1725.5 1252.11 1724.04 1252.11 1722.23 1252.11 1720.43 1253.58 1719.08 1255.38 1719.08L1354.03 1719.08C1355.84 1719.08 1357.3 1720.43 1357.3 1722.23 1357.3 1724.04 1355.84 1725.5 1354.03 1725.5Z" fill="#656565" transform="matrix(1 0 0 1.00139 136.339 -49.6359)"/><path d="M1259.39 1692.86 1259.56 1692.96C1263.36 1695.15 1268.24 1693.85 1270.43 1690.04L1297.63 1642.93C1299.84 1639.12 1298.53 1634.25 1294.72 1632.05L1294.55 1631.96C1290.74 1629.76 1285.87 1631.07 1283.67 1634.88L1256.48 1681.98C1254.28 1685.79 1255.58 1690.66 1259.39 1692.86Z" fill="#656565" transform="matrix(1 0 0 1.00139 136.339 -49.6359)"/><path d="M1338.92 1690.04C1341.12 1693.85 1345.99 1695.15 1349.8 1692.96L1349.96 1692.86C1353.77 1690.66 1355.08 1685.79 1352.88 1681.98L1325.68 1634.87C1323.48 1631.06 1318.62 1629.76 1314.81 1631.96L1314.64 1632.05C1310.83 1634.25 1309.53 1639.12 1311.73 1642.93L1338.92 1690.04Z" fill="#656565" transform="matrix(1 0 0 1.00139 136.339 -49.6359)"/><path d="M1774.77 1613.03 1731.44 1620.23 1638.76 1712.92 1702.53 1776.69 1795.79 1683.42 1803 1641.37 1774.77 1613.03ZM1715.3 1745.21 1670.24 1700.14 1676.28 1694.1 1721.35 1739.17 1715.3 1745.21ZM1727.96 1732.66 1682.78 1687.48 1688.82 1681.56 1733.88 1726.62 1727.96 1732.66ZM1769.89 1657.51 1759.09 1646.71 1769.89 1635.91 1780.82 1646.71 1769.89 1657.51Z" fill="#656565" transform="matrix(1 0 0 1.00139 136.339 -49.6359)"/></g></g><g clip-path="url(#clip7)"><g clip-path="url(#clip8)"><text fill="#A1B5D8" font-family="Arial,Arial_MSFontService,sans-serif" font-weight="700" font-size="144" transform="matrix(2.29075 0 0 2.29394 809.696 1272)">ACME</text><path d="M680.955 1659.95C685.131 1658.1 695.337 1653.06 700.74 1645.94 707.627 1636.97 707.134 1633.89 707.134 1633.89L683.413 1638.19 677.148 1632.91 678.866 1627.87 701.487 1623.2C701.487 1623.2 692.265 1615.57 681.695 1613.61 671.735 1611.64 658.955 1613.85 654.034 1624.55L654.034 1624.43C654.034 1624.43 651.579 1629.59 651.214 1633.03 650.843 1636.35 649.123 1643.6 645.921 1649.38 643.22 1654.17 640.272 1659.71 632.895 1666.95L630.93 1664.99 630.066 1665.73 604.989 1639.79C598.355 1618.28 630.685 1624.18 644.571 1625.91 610.893 1593.58 574.63 1608.94 556.684 1646.19 552.259 1651.59 542.672 1647.29 537.263 1658.48 540.333 1667.08 553.608 1675.56 561.108 1678.27 570.573 1672.73 568.484 1662.66 570.818 1655.41 577.949 1649.5 583.603 1651.47 590.361 1656.27L617.158 1678.02 616.42 1678.76 617.648 1680.11C597.982 1696.34 561.108 1726.21 556.806 1729.65 551.521 1733.95 542.301 1742.07 552.38 1752.39 562.581 1762.71 572.168 1756.32 575.242 1753.25 577.457 1751.16 611.504 1718.34 633.134 1697.69L688.446 1760.62 708.847 1740.96 649.121 1682.69C649.858 1681.95 650.468 1681.34 650.713 1681.22 653.668 1678.76 658.462 1673.1 670.995 1669.42L684.767 1671.14 685.012 1670.03 680.955 1659.95Z" fill="#656565" transform="matrix(1 0 0 1.00139 113.308 -60.2889)"/><path d="M887.906 1616.3 902.684 1616.3 902.684 1590.31 999.008 1590.31 999.008 1616.3 1013.79 1616.3C1025.95 1616.3 1035.96 1626.19 1035.96 1638.47L1035.96 1677.34C1035.96 1689.49 1025.95 1699.51 1013.79 1699.51L1004.97 1699.51 1004.97 1666.13 896.728 1666.13 896.728 1699.51 887.906 1699.51C875.742 1699.51 865.73 1689.49 865.73 1677.34L865.73 1638.47C865.73 1626.19 875.742 1616.3 887.906 1616.3Z" fill="#656565" transform="matrix(1 0 0 1.00139 113.308 -60.2889)"/><path d="M904.12 1669.85 1001.75 1669.85 1001.75 1757.83 899.949 1757.83 899.949 1669.85 904.12 1669.85ZM993.404 1678.19 908.294 1678.19 908.294 1749.36 993.404 1749.36 993.404 1678.19Z" fill="#656565" transform="matrix(1 0 0 1.00139 113.308 -60.2889)"/><path d="M917.361 1686.51 974.158 1686.51 974.158 1692.48 917.361 1692.48Z" fill="#656565" transform="matrix(1 0 0 1.00139 113.308 -60.2889)"/><path d="M917.356 1698.44 961.013 1698.44 961.013 1704.42 917.356 1704.42Z" fill="#656565" transform="matrix(1 0 0 1.00139 113.308 -60.2889)"/><path d="M917.35 1710.47 976.917 1710.47 976.917 1716.45 917.35 1716.45Z" fill="#656565" transform="matrix(1 0 0 1.00139 113.308 -60.2889)"/><path d="M917.356 1722.4 968.619 1722.4 968.619 1728.38 917.356 1728.38Z" fill="#656565" transform="matrix(1 0 0 1.00139 113.308 -60.2889)"/><path d="M1376.56 1685.75 1360.9 1685.75C1360.68 1693.86 1354.15 1700.5 1345.93 1700.5 1337.82 1700.5 1331.17 1693.86 1331.06 1685.75L1278.36 1685.75C1278.24 1693.86 1271.6 1700.5 1263.37 1700.5 1255.26 1700.5 1248.62 1693.86 1248.51 1685.75L1232.86 1685.75C1225.87 1685.75 1220.13 1691.49 1220.13 1698.47 1220.13 1705.12 1225.42 1710.64 1231.96 1711.09L1248.62 1773.71C1249.41 1776.85 1251.32 1779.67 1254.59 1779.67L1352.46 1779.67C1355.84 1779.67 1357.53 1776.85 1358.54 1773.71L1377.46 1711.09C1383.99 1710.64 1389.17 1705.12 1389.17 1698.47 1389.17 1691.49 1383.54 1685.75 1376.56 1685.75ZM1336.35 1748.37C1338.15 1748.37 1339.62 1749.83 1339.62 1751.63 1339.62 1753.43 1338.15 1754.9 1336.35 1754.9L1273.06 1754.9C1271.26 1754.9 1269.8 1753.43 1269.8 1751.63 1269.8 1749.83 1271.26 1748.37 1273.06 1748.37M1345.59 1740.71 1263.82 1740.71C1262.02 1740.71 1260.56 1739.24 1260.56 1737.44 1260.56 1735.64 1262.02 1734.17 1263.82 1734.17L1345.59 1734.17C1347.39 1734.17 1348.85 1735.64 1348.85 1737.44 1348.85 1739.24 1347.39 1740.71 1345.59 1740.71ZM1354.03 1725.5 1255.38 1725.5C1253.58 1725.5 1252.11 1724.04 1252.11 1722.23 1252.11 1720.43 1253.58 1719.08 1255.38 1719.08L1354.03 1719.08C1355.84 1719.08 1357.3 1720.43 1357.3 1722.23 1357.3 1724.04 1355.84 1725.5 1354.03 1725.5Z" fill="#656565" transform="matrix(1 0 0 1.00139 113.308 -60.2889)"/><path d="M1259.39 1692.86 1259.56 1692.96C1263.36 1695.15 1268.24 1693.85 1270.43 1690.04L1297.63 1642.93C1299.84 1639.12 1298.53 1634.25 1294.72 1632.05L1294.55 1631.96C1290.74 1629.76 1285.87 1631.07 1283.67 1634.88L1256.48 1681.98C1254.28 1685.79 1255.58 1690.66 1259.39 1692.86Z" fill="#656565" transform="matrix(1 0 0 1.00139 113.308 -60.2889)"/><path d="M1338.92 1690.04C1341.12 1693.85 1345.99 1695.15 1349.8 1692.96L1349.96 1692.86C1353.77 1690.66 1355.08 1685.79 1352.88 1681.98L1325.68 1634.87C1323.48 1631.06 1318.62 1629.76 1314.81 1631.96L1314.64 1632.05C1310.83 1634.25 1309.53 1639.12 1311.73 1642.93L1338.92 1690.04Z" fill="#656565" transform="matrix(1 0 0 1.00139 113.308 -60.2889)"/><path d="M1774.77 1613.03 1731.44 1620.23 1638.76 1712.92 1702.53 1776.69 1795.79 1683.42 1803 1641.37 1774.77 1613.03ZM1715.3 1745.21 1670.24 1700.14 1676.28 1694.1 1721.35 1739.17 1715.3 1745.21ZM1727.96 1732.66 1682.78 1687.48 1688.82 1681.56 1733.88 1726.62 1727.96 1732.66ZM1769.89 1657.51 1759.09 1646.71 1769.89 1635.91 1780.82 1646.71 1769.89 1657.51Z" fill="#656565" transform="matrix(1 0 0 1.00139 113.308 -60.2889)"/></g></g><g clip-path="url(#clip9)"><g clip-path="url(#clip10)"><text fill="#A1B5D8" font-family="Arial,Arial_MSFontService,sans-serif" font-weight="700" font-size="144" transform="matrix(2.29076 0 0 2.29288 780.924 1332)">ACME</text><path d="M680.957 1659.96C685.133 1658.11 695.339 1653.07 700.743 1645.94 707.629 1636.97 707.136 1633.9 707.136 1633.9L683.415 1638.2 677.15 1632.91 678.868 1627.87 701.49 1623.2C701.49 1623.2 692.267 1615.58 681.697 1613.61 671.737 1611.65 658.957 1613.86 654.036 1624.55L654.036 1624.43C654.036 1624.43 651.581 1629.59 651.216 1633.04 650.845 1636.36 649.125 1643.61 645.923 1649.39 643.222 1654.18 640.274 1659.71 632.897 1666.96L630.932 1664.99 630.068 1665.73 604.991 1639.8C598.357 1618.29 630.687 1624.19 644.573 1625.91 610.895 1593.58 574.632 1608.95 556.686 1646.19 552.26 1651.6 542.674 1647.3 537.265 1658.49 540.335 1667.09 553.61 1675.57 561.11 1678.27 570.575 1672.74 568.486 1662.66 570.82 1655.41 577.951 1649.51 583.605 1651.48 590.363 1656.27L617.16 1678.03 616.422 1678.77 617.65 1680.12C597.984 1696.34 561.11 1726.21 556.808 1729.65 551.523 1733.96 542.302 1742.07 552.382 1752.39 562.583 1762.72 572.169 1756.33 575.244 1753.25 577.459 1751.17 611.506 1718.35 633.136 1697.69L688.448 1760.63 708.85 1740.96 649.123 1682.7C649.86 1681.96 650.47 1681.34 650.715 1681.22 653.67 1678.76 658.464 1673.11 670.997 1669.42L684.769 1671.14 685.014 1670.04 680.957 1659.96Z" fill="#656565" transform="matrix(1 0 0 1.00093 84.5335 -0.653986)"/><path d="M887.909 1616.31 902.687 1616.31 902.687 1590.31 999.011 1590.31 999.011 1616.3 1013.8 1616.3C1025.95 1616.3 1035.97 1626.2 1035.97 1638.48L1035.97 1677.34C1035.97 1689.5 1025.95 1699.52 1013.8 1699.52L1004.97 1699.52 1004.97 1666.13 896.731 1666.13 896.731 1699.52 887.909 1699.52C875.745 1699.52 865.732 1689.5 865.732 1677.34L865.732 1638.48C865.732 1626.2 875.745 1616.31 887.909 1616.31Z" fill="#656565" transform="matrix(1 0 0 1.00093 84.5335 -0.653986)"/><path d="M904.123 1669.85 1001.75 1669.85 1001.75 1757.83 899.952 1757.83 899.952 1669.85 904.123 1669.85ZM993.408 1678.2 908.297 1678.2 908.297 1749.36 993.408 1749.36 993.408 1678.2Z" fill="#656565" transform="matrix(1 0 0 1.00093 84.5335 -0.653986)"/><path d="M917.364 1686.52 974.161 1686.52 974.161 1692.49 917.364 1692.49Z" fill="#656565" transform="matrix(1 0 0 1.00093 84.5335 -0.653986)"/><path d="M917.359 1698.45 961.016 1698.45 961.016 1704.43 917.359 1704.43Z" fill="#656565" transform="matrix(1 0 0 1.00093 84.5335 -0.653986)"/><path d="M917.353 1710.47 976.92 1710.47 976.92 1716.45 917.353 1716.45Z" fill="#656565" transform="matrix(1 0 0 1.00093 84.5335 -0.653986)"/><path d="M917.359 1722.41 968.622 1722.41 968.622 1728.39 917.359 1728.39Z" fill="#656565" transform="matrix(1 0 0 1.00093 84.5335 -0.653986)"/><path d="M1376.56 1685.75 1360.91 1685.75C1360.68 1693.86 1354.15 1700.5 1345.93 1700.5 1337.82 1700.5 1331.18 1693.86 1331.07 1685.75L1278.36 1685.75C1278.25 1693.86 1271.6 1700.5 1263.38 1700.5 1255.27 1700.5 1248.63 1693.86 1248.52 1685.75L1232.86 1685.75C1225.88 1685.75 1220.14 1691.5 1220.14 1698.48 1220.14 1705.12 1225.43 1710.64 1231.96 1711.09L1248.63 1773.71C1249.42 1776.86 1251.33 1779.68 1254.6 1779.68L1352.46 1779.68C1355.84 1779.68 1357.53 1776.86 1358.54 1773.71L1377.46 1711.09C1384 1710.64 1389.18 1705.12 1389.18 1698.48 1389.17 1691.5 1383.54 1685.75 1376.56 1685.75ZM1336.36 1748.37C1338.16 1748.37 1339.62 1749.84 1339.62 1751.63 1339.62 1753.44 1338.16 1754.9 1336.36 1754.9L1273.07 1754.9C1271.26 1754.9 1269.8 1753.44 1269.8 1751.63 1269.8 1749.84 1271.26 1748.37 1273.07 1748.37M1345.59 1740.71 1263.83 1740.71C1262.03 1740.71 1260.56 1739.25 1260.56 1737.45 1260.56 1735.65 1262.03 1734.18 1263.83 1734.18L1345.59 1734.18C1347.39 1734.18 1348.86 1735.65 1348.86 1737.45 1348.86 1739.25 1347.39 1740.71 1345.59 1740.71ZM1354.04 1725.51 1255.39 1725.51C1253.58 1725.51 1252.12 1724.04 1252.12 1722.24 1252.12 1720.44 1253.58 1719.09 1255.39 1719.09L1354.03 1719.09C1355.84 1719.09 1357.3 1720.44 1357.3 1722.24 1357.3 1724.04 1355.84 1725.51 1354.04 1725.51Z" fill="#656565" transform="matrix(1 0 0 1.00093 84.5335 -0.653986)"/><path d="M1259.4 1692.87 1259.56 1692.96C1263.37 1695.16 1268.24 1693.86 1270.44 1690.05L1297.64 1642.94C1299.84 1639.13 1298.53 1634.26 1294.72 1632.06L1294.56 1631.96C1290.75 1629.76 1285.88 1631.07 1283.68 1634.88L1256.48 1681.99C1254.28 1685.8 1255.59 1690.67 1259.4 1692.87Z" fill="#656565" transform="matrix(1 0 0 1.00093 84.5335 -0.653986)"/><path d="M1338.92 1690.05C1341.12 1693.86 1345.99 1695.16 1349.8 1692.96L1349.97 1692.87C1353.78 1690.67 1355.08 1685.8 1352.88 1681.99L1325.69 1634.88C1323.49 1631.07 1318.62 1629.76 1314.81 1631.96L1314.64 1632.06C1310.83 1634.26 1309.53 1639.13 1311.73 1642.94L1338.92 1690.05Z" fill="#656565" transform="matrix(1 0 0 1.00093 84.5335 -0.653986)"/><path d="M1774.78 1613.04 1731.45 1620.24 1638.77 1712.93 1702.53 1776.69 1795.8 1683.42 1803 1641.38 1774.78 1613.04ZM1715.31 1745.21 1670.24 1700.15 1676.29 1694.11 1721.35 1739.17 1715.31 1745.21ZM1727.97 1732.67 1682.79 1687.49 1688.83 1681.56 1733.89 1726.63 1727.97 1732.67ZM1769.9 1657.52 1759.1 1646.72 1769.9 1635.92 1780.82 1646.72 1769.9 1657.52Z" fill="#656565" transform="matrix(1 0 0 1.00093 84.5335 -0.653986)"/></g></g></g></svg>