<?xml version="1.0" encoding="UTF-8"?>
<!-- Generated by Pixelmator Pro 3.6.5 -->
<svg width="1080" height="1080" viewBox="0 0 1080 1080" xmlns="http://www.w3.org/2000/svg">
    <g id="a8933d6b-088a-4e2a-a170-c7319be59e99">
        <path id="Path" fill="#ffffff" stroke="none" visibility="hidden" d="M 0 0 L 1080 0 L 1080 1080 L 0 1080 Z"/>
    </g>
    <g id="6ed779f6-e97c-4ef6-a95e-a2128599f5fd"/>
    <g id="6ad9c42a-c9e2-486d-9098-c257826e50d9">
        <text id="ACME" xml:space="preserve" x="304" y="581" font-family="Helvetica" font-size="144" font-weight="700" fill="#a1b5d8">ACME</text>
    </g>
    <g id="464e9018-cf17-4460-8bc7-652b8236e038">
        <path id="path1" fill="#656565" stroke="none" d="M 297.263 724.631958 C 299.085999 723.825989 303.541016 721.625977 305.899994 718.515015 C 308.906006 714.598022 308.69101 713.255981 308.69101 713.255981 L 298.335999 715.134033 L 295.601013 712.827026 L 296.351013 710.627014 L 306.226013 708.588013 C 306.226013 708.588013 302.200012 705.26001 297.585999 704.401978 C 293.238007 703.542969 287.658997 704.509033 285.510986 709.177002 L 285.510986 709.124023 C 285.510986 709.124023 284.438995 711.377014 284.279999 712.880005 C 284.118011 714.329956 283.367004 717.495972 281.968994 720.018005 C 280.790009 722.109985 279.502991 724.525024 276.28299 727.688965 L 275.424988 726.830994 L 275.048004 727.153015 L 264.101013 715.833008 C 261.204987 706.442017 275.317993 709.018005 281.380005 709.77002 C 266.678009 695.657959 250.848007 702.36499 243.014008 718.622986 C 241.082001 720.984009 236.897003 719.10498 234.535995 723.98999 C 235.876007 727.745972 241.671005 731.447021 244.945007 732.627991 C 249.076996 730.212036 248.164993 725.812988 249.184006 722.64801 C 252.296997 720.071045 254.764999 720.93103 257.714996 723.02301 L 269.412994 732.520996 L 269.091003 732.843018 L 269.627014 733.432983 C 261.041992 740.516968 244.945007 753.55603 243.067001 755.057007 C 240.759995 756.936035 236.735001 760.478027 241.134995 764.984009 C 245.587997 769.490967 249.772995 766.702026 251.115005 765.359985 C 252.082001 764.448975 266.945007 750.122009 276.386993 741.105957 L 300.53299 768.579956 L 309.438995 759.994019 L 283.365997 734.55896 C 283.687988 734.237 283.95401 733.968018 284.061005 733.916016 C 285.351013 732.842041 287.444 730.374023 292.915009 728.764038 L 298.927002 729.515991 L 299.033997 729.031982 L 297.263 724.631958 Z"/>
    </g>
    <g id="Group">
        <g id="g1">
            <g id="g2">
                <path id="path2" fill="#656565" stroke="none" d="M 387.605011 705.577026 L 394.056 705.577026 L 394.056 694.230957 L 436.105011 694.230957 L 436.105011 705.575989 L 442.55899 705.575989 C 447.865997 705.575989 452.237 709.89502 452.237 715.255005 L 452.237 732.221008 C 452.237 737.526978 447.865997 741.901001 442.55899 741.901001 L 438.708008 741.901001 L 438.708008 727.328979 L 391.455994 727.328979 L 391.455994 741.901978 L 387.605011 741.901978 C 382.295013 741.901978 377.924011 737.527954 377.924011 732.221985 L 377.924011 715.255981 C 377.924011 709.89502 382.295013 705.577026 387.605011 705.577026 Z"/>
            </g>
            <g id="g3">
                <path id="path3" fill="#656565" stroke="none" d="M 394.683014 728.952026 L 437.302002 728.952026 L 437.302002 767.358032 L 392.862 767.358032 L 392.862 728.952026 L 394.683014 728.952026 Z M 433.658997 732.594971 L 396.505005 732.594971 L 396.505005 763.661987 L 433.658997 763.661987 L 433.658997 732.594971 Z"/>
            </g>
            <g id="g4">
                <path id="path4" fill="#656565" stroke="none" d="M 400.463013 736.22699 L 425.256989 736.22699 L 425.256989 738.833008 L 400.463013 738.833008 Z"/>
            </g>
            <g id="g5">
                <path id="path5" fill="#656565" stroke="none" d="M 400.460999 741.434998 L 419.519012 741.434998 L 419.519012 744.045044 L 400.460999 744.045044 Z"/>
            </g>
            <g id="g6">
                <path id="path6" fill="#656565" stroke="none" d="M 400.458496 746.684998 L 426.461487 746.684998 L 426.461487 749.295044 L 400.458496 749.295044 Z"/>
            </g>
            <g id="g7">
                <path id="path7" fill="#656565" stroke="none" d="M 400.460999 751.89502 L 422.838989 751.89502 L 422.838989 754.505005 L 400.460999 754.505005 Z"/>
            </g>
        </g>
    </g>
    <g id="g8">
        <g id="g9">
            <g id="g10">
                <path id="path8" fill="#656565" stroke="none" d="M 600.919006 735.894043 L 594.086975 735.894043 C 593.987976 739.43396 591.137024 742.333008 587.547974 742.333008 C 584.007996 742.333008 581.106995 739.43396 581.059998 735.894043 L 558.051025 735.894043 C 558.002014 739.43396 555.10199 742.333008 551.510986 742.333008 C 547.971008 742.333008 545.072021 739.43396 545.02301 735.894043 L 538.189026 735.894043 C 535.140015 735.894043 532.633972 738.401001 532.633972 741.448975 C 532.633972 744.348999 534.94397 746.759033 537.796021 746.954956 L 545.072021 774.290039 C 545.416016 775.665039 546.250977 776.894043 547.677002 776.894043 L 590.398987 776.894043 C 591.875977 776.894043 592.612 775.665039 593.054016 774.290039 L 601.312988 746.954956 C 604.164978 746.759033 606.427002 744.348999 606.427002 741.448975 C 606.426025 738.401001 603.968018 735.894043 600.919006 735.894043 Z M 583.369019 763.229004 C 584.155029 763.229004 584.794983 763.868042 584.794983 764.653015 C 584.794983 765.44104 584.155029 766.080017 583.369019 766.080017 L 555.73999 766.080017 C 554.952026 766.080017 554.314026 765.44104 554.314026 764.653015 C 554.314026 763.868042 554.952026 763.229004 555.73999 763.229004 M 587.400024 759.88501 L 551.70697 759.88501 C 550.921021 759.88501 550.28302 759.244995 550.28302 758.458984 C 550.28302 757.672974 550.921997 757.032959 551.70697 757.032959 L 587.400024 757.032959 C 588.185974 757.032959 588.825989 757.672974 588.825989 758.458984 C 588.825989 759.244995 588.185974 759.88501 587.400024 759.88501 Z M 591.086975 753.247009 L 548.021973 753.247009 C 547.234009 753.247009 546.596008 752.609009 546.596008 751.821045 C 546.596008 751.035034 547.234985 750.446045 548.021973 750.446045 L 591.085999 750.446045 C 591.874023 750.446045 592.513 751.035034 592.513 751.821045 C 592.513 752.609009 591.875 753.247009 591.086975 753.247009 Z"/>
            </g>
            <g id="g11">
                <path id="path9" fill="#656565" stroke="none" d="M 549.77301 738.999023 L 549.843994 739.041016 C 551.507019 739.999023 553.63501 739.43103 554.593018 737.766968 L 566.466003 717.203003 C 567.427979 715.540039 566.856995 713.414001 565.194031 712.453979 L 565.120972 712.411987 C 563.458008 711.452026 561.33197 712.02301 560.372009 713.686035 L 548.5 734.25 C 547.541016 735.912964 548.109985 738.037964 549.77301 738.999023 Z"/>
            </g>
            <g id="g12">
                <path id="path10" fill="#656565" stroke="none" d="M 584.48999 737.766968 C 585.448975 739.43103 587.575989 739.999023 589.239014 739.041016 L 589.309998 738.999023 C 590.973022 738.039001 591.544006 735.912964 590.583008 734.25 L 578.711975 713.684998 C 577.750977 712.021973 575.625977 711.450989 573.963013 712.411011 L 573.890015 712.453003 C 572.22699 713.412964 571.65802 715.539001 572.619019 717.202026 L 584.48999 737.766968 Z"/>
            </g>
        </g>
    </g>
    <g id="28393dfc-0744-464c-99b1-f8cd0ee4b9c2">
        <path id="path11" fill="#656565" stroke="none" d="M 774.755005 704.150024 L 755.841003 707.294006 L 715.382996 747.755005 L 743.218994 775.591003 L 783.932007 734.875 L 787.077026 716.521973 L 774.755005 704.150024 Z M 748.794983 761.849976 L 729.122986 742.176025 L 731.760986 739.541016 L 751.432983 759.213013 L 748.794983 761.849976 Z M 754.322021 756.372986 L 734.598022 736.650024 L 737.234985 734.065002 L 756.906982 753.735962 L 754.322021 756.372986 Z M 772.625 723.567993 L 767.911987 718.854004 L 772.625 714.138 L 777.393982 718.854004 L 772.625 723.567993 Z"/>
    </g>
</svg>
