<svg viewBox="0 0 214 32" fill="none" xmlns="http://www.w3.org/2000/svg">
  <path d="M111.359 17.8105V18.3496C111.359 19.2142 111.242 19.9902 111.008 20.6777C110.773 21.3652 110.443 21.9512 110.016 22.4355C109.589 22.9147 109.078 23.2819 108.484 23.5371C107.896 23.7923 107.242 23.9199 106.523 23.9199C105.81 23.9199 105.156 23.7923 104.562 23.5371C103.974 23.2819 103.464 22.9147 103.031 22.4355C102.599 21.9512 102.263 21.3652 102.023 20.6777C101.789 19.9902 101.672 19.2142 101.672 18.3496V17.8105C101.672 16.9408 101.789 16.1647 102.023 15.4824C102.258 14.7949 102.589 14.209 103.016 13.7246C103.448 13.2402 103.958 12.8704 104.547 12.6152C105.141 12.36 105.794 12.2324 106.508 12.2324C107.227 12.2324 107.88 12.36 108.469 12.6152C109.062 12.8704 109.573 13.2402 110 13.7246C110.432 14.209 110.766 14.7949 111 15.4824C111.24 16.1647 111.359 16.9408 111.359 17.8105ZM108.992 18.3496V17.7949C108.992 17.1908 108.938 16.6595 108.828 16.2012C108.719 15.7428 108.557 15.3574 108.344 15.0449C108.13 14.7324 107.87 14.498 107.562 14.3418C107.255 14.1803 106.904 14.0996 106.508 14.0996C106.112 14.0996 105.76 14.1803 105.453 14.3418C105.151 14.498 104.893 14.7324 104.68 15.0449C104.471 15.3574 104.312 15.7428 104.203 16.2012C104.094 16.6595 104.039 17.1908 104.039 17.7949V18.3496C104.039 18.9486 104.094 19.4798 104.203 19.9434C104.312 20.4017 104.474 20.7897 104.688 21.1074C104.901 21.4199 105.161 21.6569 105.469 21.8184C105.776 21.9798 106.128 22.0605 106.523 22.0605C106.919 22.0605 107.271 21.9798 107.578 21.8184C107.885 21.6569 108.143 21.4199 108.352 21.1074C108.56 20.7897 108.719 20.4017 108.828 19.9434C108.938 19.4798 108.992 18.9486 108.992 18.3496ZM115.391 12.3887V23.7637H113.047V12.3887H115.391ZM122.203 12.3887L117.695 18.0059L115.094 20.8027L114.672 18.584L116.43 16.1777L119.328 12.3887H122.203ZM119.539 23.7637L116.188 18.5059L117.922 17.0527L122.312 23.7637H119.539ZM123.219 12.3887H127.461C128.331 12.3887 129.078 12.5189 129.703 12.7793C130.333 13.0397 130.818 13.4251 131.156 13.9355C131.495 14.446 131.664 15.0736 131.664 15.8184C131.664 16.4277 131.56 16.9512 131.352 17.3887C131.148 17.821 130.859 18.1829 130.484 18.4746C130.115 18.7611 129.68 18.9902 129.18 19.1621L128.438 19.5527H124.75L124.734 17.7246H127.477C127.888 17.7246 128.229 17.6517 128.5 17.5059C128.771 17.36 128.974 17.1569 129.109 16.8965C129.25 16.6361 129.32 16.334 129.32 15.9902C129.32 15.6257 129.253 15.3105 129.117 15.0449C128.982 14.7793 128.776 14.5762 128.5 14.4355C128.224 14.2949 127.878 14.2246 127.461 14.2246H125.562V23.7637H123.219V12.3887ZM129.578 23.7637L126.984 18.6934L129.461 18.6777L132.086 23.6543V23.7637H129.578ZM137.766 17.998V19.7637H133.352V17.998H137.766ZM143.273 23.7637H140.797L140.812 21.9355H143.273C143.888 21.9355 144.406 21.7975 144.828 21.5215C145.25 21.2402 145.568 20.8314 145.781 20.2949C146 19.7585 146.109 19.11 146.109 18.3496V17.7949C146.109 17.2116 146.047 16.6986 145.922 16.2559C145.802 15.8132 145.622 15.4408 145.383 15.1387C145.143 14.8366 144.849 14.61 144.5 14.459C144.151 14.3027 143.75 14.2246 143.297 14.2246H140.75V12.3887H143.297C144.057 12.3887 144.753 12.5189 145.383 12.7793C146.018 13.0345 146.568 13.4017 147.031 13.8809C147.495 14.36 147.852 14.9329 148.102 15.5996C148.357 16.2611 148.484 16.998 148.484 17.8105V18.3496C148.484 19.1569 148.357 19.8939 148.102 20.5605C147.852 21.2272 147.495 21.8001 147.031 22.2793C146.573 22.7533 146.023 23.1204 145.383 23.3809C144.747 23.6361 144.044 23.7637 143.273 23.7637ZM142.125 12.3887V23.7637H139.781V12.3887H142.125ZM157.82 21.9355V23.7637H151.766V21.9355H157.82ZM152.531 12.3887V23.7637H150.188V12.3887H152.531ZM157.031 17.0215V18.8027H151.766V17.0215H157.031ZM157.812 12.3887V14.2246H151.766V12.3887H157.812ZM160.258 12.3887H162.242L165.164 20.7402L168.086 12.3887H170.07L165.961 23.7637H164.367L160.258 12.3887ZM159.188 12.3887H161.164L161.523 20.5293V23.7637H159.188V12.3887ZM169.164 12.3887H171.148V23.7637H168.805V20.5293L169.164 12.3887ZM182.547 17.8105V18.3496C182.547 19.2142 182.43 19.9902 182.195 20.6777C181.961 21.3652 181.63 21.9512 181.203 22.4355C180.776 22.9147 180.266 23.2819 179.672 23.5371C179.083 23.7923 178.43 23.9199 177.711 23.9199C176.997 23.9199 176.344 23.7923 175.75 23.5371C175.161 23.2819 174.651 22.9147 174.219 22.4355C173.786 21.9512 173.451 21.3652 173.211 20.6777C172.977 19.9902 172.859 19.2142 172.859 18.3496V17.8105C172.859 16.9408 172.977 16.1647 173.211 15.4824C173.445 14.7949 173.776 14.209 174.203 13.7246C174.635 13.2402 175.146 12.8704 175.734 12.6152C176.328 12.36 176.982 12.2324 177.695 12.2324C178.414 12.2324 179.068 12.36 179.656 12.6152C180.25 12.8704 180.76 13.2402 181.188 13.7246C181.62 14.209 181.953 14.7949 182.188 15.4824C182.427 16.1647 182.547 16.9408 182.547 17.8105ZM180.18 18.3496V17.7949C180.18 17.1908 180.125 16.6595 180.016 16.2012C179.906 15.7428 179.745 15.3574 179.531 15.0449C179.318 14.7324 179.057 14.498 178.75 14.3418C178.443 14.1803 178.091 14.0996 177.695 14.0996C177.299 14.0996 176.948 14.1803 176.641 14.3418C176.339 14.498 176.081 14.7324 175.867 15.0449C175.659 15.3574 175.5 15.7428 175.391 16.2012C175.281 16.6595 175.227 17.1908 175.227 17.7949V18.3496C175.227 18.9486 175.281 19.4798 175.391 19.9434C175.5 20.4017 175.661 20.7897 175.875 21.1074C176.089 21.4199 176.349 21.6569 176.656 21.8184C176.964 21.9798 177.315 22.0605 177.711 22.0605C178.107 22.0605 178.458 21.9798 178.766 21.8184C179.073 21.6569 179.331 21.4199 179.539 21.1074C179.747 20.7897 179.906 20.4017 180.016 19.9434C180.125 19.4798 180.18 18.9486 180.18 18.3496Z" fill="#5AAA4A"/>
  <path d="M27.4493 5.44967C21.1697 -0.79848 10.9889 -0.798306 4.70951 5.45006C-1.56984 11.6984 -1.56984 21.8289 4.70951 28.0773C10.9889 34.3256 21.1697 34.3258 27.4493 28.0777C30.465 25.0771 32.1592 21.0073 32.1592 16.7637C32.1592 12.5201 30.465 8.45028 27.4493 5.44967ZM26.2098 10.9763C25.6859 12.5337 24.0002 17.2057 24.0002 17.2057C23.4361 18.7283 20.1371 18.715 15.6576 18.7283C15.6576 18.7283 18.5519 18.3217 19.3881 16.7137C20.1057 15.1353 20.7145 13.5103 21.2104 11.8497C16.755 11.8497 16.3571 13.403 16.3571 13.403C16.3571 13.403 13.5431 21.239 12.5368 24.1297C4.73285 24.1297 5.98036 20.295 5.98036 20.295L9.88368 9.39901H17.7895L17.2615 10.9683C17.2615 10.9683 17.9047 9.39901 22.2636 9.39901C22.2663 9.39901 26.7351 9.41767 26.2098 10.9763Z" fill="white"/>
  <path d="M41.4492 19.9137V23.9363H38.7036V12.203H43.4913C44.695 12.1383 45.8803 12.5181 46.8198 13.2697C47.6365 13.9683 48.0896 14.9986 48.0512 16.0697C48.0895 17.1388 47.6362 18.167 46.8198 18.863C45.8778 19.6091 44.6936 19.9858 43.4913 19.9217L41.4492 19.9137ZM41.4492 17.819H43.4913C43.9922 17.8537 44.4846 17.6765 44.8473 17.331C45.1635 16.9913 45.3308 16.5403 45.3123 16.0777C45.3312 15.6066 45.1643 15.1468 44.8473 14.7963C44.4883 14.4438 43.9945 14.2617 43.4913 14.2963H41.4492V17.819Z" fill="white"/>
  <path d="M58.8808 12.2003V19.8897C58.9468 21.0783 58.4512 22.2293 57.5409 23.0017C56.5394 23.7725 55.2949 24.1634 54.0301 24.1043C52.7561 24.1657 51.5015 23.7749 50.4899 23.0017C49.5791 22.2297 49.0834 21.0784 49.15 19.8897V12.2003H51.8969V19.8897C51.8481 20.4775 52.0511 21.0586 52.4557 21.4897C52.8949 21.8597 53.4611 22.0461 54.0355 22.0097C54.6027 22.0467 55.162 21.8615 55.5939 21.4937C55.9914 21.059 56.1894 20.4794 56.1406 19.8937V12.2003H58.8808Z" fill="white"/>
  <path d="M63.3295 21.8403H68.7001V23.9363H59.9608V22.711L65.2336 14.2963H59.9367V12.2003H68.6277V13.3777L63.3295 21.8403Z" fill="white"/>
  <path d="M72.9263 21.8403H78.2969V23.9363H69.5577V22.711L74.8304 14.2963H69.5336V12.2003H78.2246V13.3777L72.9263 21.8403Z" fill="white"/>
  <path d="M82.0703 21.8403H87.1488V23.9363H79.326V12.203H82.073L82.0703 21.8403Z" fill="white"/>
  <path d="M95.4713 18.915H90.8498V21.8403H96.3007V23.9363H88.1001V12.203H96.3128V14.299H90.8498V16.8217H95.4753L95.4713 18.915Z" fill="white"/>
</svg>
