<svg width="60" height="60" viewBox="0 0 60 60" fill="none" xmlns="http://www.w3.org/2000/svg">
  <g clip-path="url(#clip0_528_17651)">
    <rect width="60" height="60" fill="white"/>
    <rect x="-57" y="-5" width="582" height="160" fill="#1E5A96"/>
    <path d="M27 15L30.3677 25.3647H41.2658L32.4491 31.7705L35.8168 42.1353L27 35.7295L18.1832 42.1353L21.5509 31.7705L12.7342 25.3647H23.6323L27 15Z" fill="white"/>
    <path d="M8 44L9.5716 48.8369H14.6574L10.5429 51.8262L12.1145 56.6631L8 53.6738L3.8855 56.6631L5.4571 51.8262L1.3426 48.8369H6.4284L8 44Z" fill="white"/>
    <path d="M-0.5 16L1.18386 21.1824H6.63292L2.22453 24.3853L3.90839 29.5676L-0.5 26.3647L-4.90839 29.5676L-3.22453 24.3853L-7.63292 21.1824H-2.18386L-0.5 16Z" fill="white"/>
    <path d="M59.5 16L61.1839 21.1824H66.6329L62.2245 24.3853L63.9084 29.5676L59.5 26.3647L55.0916 29.5676L56.7755 24.3853L52.3671 21.1824H57.8161L59.5 16Z" fill="white"/>
    <path d="M15.5 2L17.1839 7.18237H22.6329L18.2245 10.3853L19.9084 15.5676L15.5 12.3647L11.0916 15.5676L12.7755 10.3853L8.36708 7.18237H13.8161L15.5 2Z" fill="white"/>
    <path d="M42 13L42.6735 15.0729H44.8532L43.0898 16.3541L43.7634 18.4271L42 17.1459L40.2366 18.4271L40.9102 16.3541L39.1468 15.0729H41.3265L42 13Z" fill="white"/>
    <path d="M54 4L54.449 5.38197H55.9021L54.7265 6.23607L55.1756 7.61803L54 6.76393L52.8244 7.61803L53.2735 6.23607L52.0979 5.38197H53.551L54 4Z" fill="white"/>
    <path d="M32 8L32.449 9.38197H33.9021L32.7265 10.2361L33.1756 11.618L32 10.7639L30.8244 11.618L31.2735 10.2361L30.0979 9.38197H31.551L32 8Z" fill="white"/>
    <path d="M10 34L10.449 35.382H11.9021L10.7265 36.2361L11.1756 37.618L10 36.7639L8.82443 37.618L9.27346 36.2361L8.09789 35.382H9.55097L10 34Z" fill="white"/>
    <path d="M28 44L29.1226 47.4549H32.7553L29.8164 49.5902L30.9389 53.0451L28 50.9098L25.0611 53.0451L26.1836 49.5902L23.2447 47.4549H26.8774L28 44Z" fill="white"/>
    <path d="M51.5 35L52.7348 38.8004H56.7308L53.498 41.1492L54.7328 44.9496L51.5 42.6008L48.2672 44.9496L49.502 41.1492L46.2692 38.8004H50.2652L51.5 35Z" fill="white"/>
    <path d="M43 50L45.0206 56.2188H51.5595L46.2694 60.0623L48.2901 66.2812L43 62.4377L37.7099 66.2812L39.7306 60.0623L34.4405 56.2188H40.9794L43 50Z" fill="white"/>
    <path d="M43 -10L45.0206 -3.78115H51.5595L46.2694 0.0623055L48.2901 6.28115L43 2.43769L37.7099 6.28115L39.7306 0.0623055L34.4405 -3.78115H40.9794L43 -10Z" fill="white"/>
  </g>
  <defs>
    <clipPath id="clip0_528_17651">
      <rect width="60" height="60" fill="white"/>
    </clipPath>
  </defs>
</svg>
