<svg width="16" height="16" viewBox="0 0 16 16" fill="none" xmlns="http://www.w3.org/2000/svg">
<path d="M1.96338 15.288L0.715375 13.944L2.21938 12.44C1.64338 11.7573 1.20604 11.0213 0.907375 10.232C0.630042 9.44267 0.491375 8.58933 0.491375 7.672C0.491375 6.30667 0.822042 5.06933 1.48338 3.96C2.16604 2.82933 3.07271 1.93333 4.20338 1.272C5.33404 0.589333 6.57138 0.247999 7.91538 0.247999C8.79004 0.247999 9.62204 0.397333 10.4114 0.695999C11.222 0.973333 11.9687 1.4 12.6514 1.976L14.2834 0.344L15.4994 1.72L13.8994 3.32C14.39 3.98133 14.7527 4.67467 14.9874 5.4C15.222 6.104 15.3394 6.86133 15.3394 7.672C15.3394 9.016 14.998 10.2533 14.3154 11.384C13.654 12.5147 12.758 13.4213 11.6274 14.104C10.518 14.7653 9.28071 15.096 7.91538 15.096C7.10471 15.096 6.33671 14.9787 5.61138 14.744C4.88604 14.5093 4.20338 14.1573 3.56337 13.688L1.96338 15.288ZM3.62738 11.032L11.2434 3.416C10.7314 3.032 10.198 2.744 9.64338 2.552C9.11004 2.36 8.53404 2.264 7.91538 2.264C6.91271 2.264 5.99538 2.50933 5.16338 3C4.35271 3.46933 3.70204 4.12 3.21138 4.952C2.74204 5.76267 2.50738 6.66933 2.50738 7.672C2.50738 8.29067 2.59271 8.888 2.76338 9.464C2.95538 10.0187 3.24338 10.5413 3.62738 11.032ZM7.91538 13.08C8.89671 13.08 9.79271 12.8453 10.6034 12.376C11.4354 11.8853 12.0967 11.2347 12.5874 10.424C13.078 9.592 13.3234 8.67467 13.3234 7.672C13.3234 7.13867 13.2487 6.63733 13.0994 6.168C12.9714 5.67733 12.7687 5.208 12.4914 4.76L5.00338 12.248C5.43004 12.5253 5.88871 12.7387 6.37938 12.888C6.87004 13.016 7.38204 13.08 7.91538 13.08Z" fill="black"/>
</svg>
