<svg width="20" height="20" viewBox="0 0 20 20" fill="none" xmlns="http://www.w3.org/2000/svg">
<g id="drag_indicator">
<mask id="mask0_1875_13055" style="mask-type:alpha" maskUnits="userSpaceOnUse" x="0" y="0" width="20" height="20">
<rect id="Bounding box" width="20" height="20" fill="#D9D9D9"/>
</mask>
<g mask="url(#mask0_1875_13055)">
<g id="Group 154">
<path id="Vector" d="M8.67349 3.46137C8.67349 3.98166 8.46681 4.48063 8.09891 4.84853C7.73101 5.21643 7.23203 5.42311 6.71175 5.42311C6.19146 5.42311 5.69248 5.21643 5.32458 4.84853C4.95668 4.48063 4.75 3.98166 4.75 3.46137C4.75 2.94118 4.95664 2.4423 5.32447 2.07447C5.6923 1.70664 6.19118 1.5 6.71137 1.5C7.23156 1.5 7.73044 1.70664 8.09826 2.07447C8.46609 2.4423 8.67349 2.94118 8.67349 3.46137Z" stroke="black" stroke-width="1.25"/>
<path id="Vector_2" d="M8.67349 10.0004C8.67349 10.5207 8.46681 11.0197 8.09891 11.3876C7.73101 11.7555 7.23203 11.9622 6.71175 11.9622C6.19146 11.9622 5.69248 11.7555 5.32458 11.3876C4.95668 11.0197 4.75 10.5207 4.75 10.0004C4.75 9.48024 4.95664 8.98136 5.32447 8.61353C5.6923 8.24571 6.19118 8.03906 6.71137 8.03906C7.23156 8.03906 7.73044 8.24571 8.09826 8.61353C8.46609 8.98136 8.67349 9.48024 8.67349 10.0004Z" stroke="black" stroke-width="1.25"/>
<path id="Vector_3" d="M8.67349 16.5395C8.67349 17.0598 8.46681 17.5588 8.09891 17.9267C7.73101 18.2946 7.23203 18.5012 6.71175 18.5012C6.19146 18.5012 5.69248 18.2946 5.32458 17.9267C4.95668 17.5588 4.75 17.0598 4.75 16.5395C4.75 16.0193 4.95664 15.5204 5.32447 15.1526C5.6923 14.7848 6.19118 14.5781 6.71137 14.5781C7.23156 14.5781 7.73044 14.7848 8.09826 15.1526C8.46609 15.5204 8.67349 16.0193 8.67349 16.5395Z" stroke="black" stroke-width="1.25"/>
<path id="Vector_4" d="M15.2113 3.46137C15.2113 3.98155 15.0047 4.48044 14.6368 4.84826C14.269 5.21609 13.7701 5.42274 13.2499 5.42274C12.7298 5.42274 12.2309 5.21609 11.863 4.84826C11.4952 4.48044 11.2886 3.98155 11.2886 3.46137C11.2886 2.94118 11.4952 2.4423 11.863 2.07447C12.2309 1.70664 12.7298 1.5 13.2499 1.5C13.7701 1.5 14.269 1.70664 14.6368 2.07447C15.0047 2.4423 15.2113 2.94118 15.2113 3.46137Z" stroke="black" stroke-width="1.25"/>
<path id="Vector_5" d="M15.2113 10.0004C15.2113 10.5206 15.0047 11.0195 14.6368 11.3873C14.269 11.7552 13.7701 11.9618 13.2499 11.9618C12.7298 11.9618 12.2309 11.7552 11.863 11.3873C11.4952 11.0195 11.2886 10.5206 11.2886 10.0004C11.2886 9.48024 11.4952 8.98136 11.863 8.61353C12.2309 8.24571 12.7298 8.03906 13.2499 8.03906C13.7701 8.03906 14.269 8.24571 14.6368 8.61353C15.0047 8.98136 15.2113 9.48024 15.2113 10.0004Z" stroke="black" stroke-width="1.25"/>
<path id="Vector_6" d="M15.2113 16.5395C15.2113 17.0597 15.0047 17.5586 14.6368 17.9264C14.269 18.2942 13.7701 18.5009 13.2499 18.5009C12.7298 18.5009 12.2309 18.2942 11.863 17.9264C11.4952 17.5586 11.2886 17.0597 11.2886 16.5395C11.2886 16.0193 11.4952 15.5204 11.863 15.1526C12.2309 14.7848 12.7298 14.5781 13.2499 14.5781C13.7701 14.5781 14.269 14.7848 14.6368 15.1526C15.0047 15.5204 15.2113 16.0193 15.2113 16.5395Z" stroke="black" stroke-width="1.25"/>
</g>
</g>
</g>
</svg>
