<svg width="20" height="20" viewBox="0 0 20 20" fill="none" xmlns="http://www.w3.org/2000/svg">
  <circle cx="10" cy="10" r="10" fill="#FF0000"/>
  <mask id="mask0_351_11894" style="mask-type:alpha" maskUnits="userSpaceOnUse" x="0" y="0" width="20" height="20">
    <rect width="20" height="20" fill="#D9D9D9"/>
  </mask>
  <g mask="url(#mask0_351_11894)">
    <path d="M12.6558 9.59615C13.0344 9.59615 13.3531 9.46676 13.6119 9.208C13.8706 8.94925 14 8.63056 14 8.25194C14 7.87331 13.8706 7.55463 13.6119 7.29588C13.3531 7.03711 13.0364 6.90773 12.6617 6.90773C12.287 6.90773 11.9703 7.03815 11.7115 7.29898C11.4527 7.55981 11.3234 7.87654 11.3234 8.24917C11.3234 8.62179 11.4529 8.93945 11.712 9.20213C11.9711 9.46481 12.2857 9.59615 12.6558 9.59615ZM7.33831 9.59615C7.71302 9.59615 8.02975 9.46573 8.2885 9.2049C8.54726 8.94406 8.67665 8.62733 8.67665 8.25471C8.67665 7.88208 8.5471 7.56443 8.28802 7.30175C8.02894 7.03907 7.71433 6.90773 7.34421 6.90773C6.96558 6.90773 6.64689 7.03711 6.38812 7.29588C6.12937 7.55463 6 7.87331 6 8.25194C6 8.63056 6.12937 8.94925 6.38812 9.208C6.64689 9.46676 6.96362 9.59615 7.33831 9.59615ZM10.0021 11.0019C9.04237 11.0019 8.17014 11.2728 7.38542 11.8144C6.60069 12.3561 6.0625 13.0853 5.77083 14.0019H7.62863C7.88954 13.5865 8.23179 13.2621 8.65538 13.0287C9.07897 12.7953 9.52718 12.6786 10 12.6786C10.4728 12.6786 10.921 12.7953 11.3446 13.0287C11.7682 13.2621 12.1105 13.5865 12.3714 14.0019H14.2292C13.9375 13.0853 13.4 12.3561 12.6167 11.8144C11.8334 11.2728 10.9618 11.0019 10.0021 11.0019ZM10.0048 18.4023C8.84941 18.4023 7.76207 18.1842 6.74275 17.7479C5.72342 17.3116 4.82954 16.7092 4.06112 15.9408C3.29271 15.1724 2.69035 14.2785 2.25406 13.2591C1.81777 12.2397 1.59962 11.1505 1.59962 9.99142C1.59962 8.83236 1.81777 7.74665 2.25406 6.73427C2.69035 5.72188 3.29271 4.83148 4.06112 4.06306C4.82954 3.29465 5.72345 2.69229 6.74285 2.256C7.76226 1.81971 8.85148 1.60156 10.0105 1.60156C11.1696 1.60156 12.2553 1.81971 13.2677 2.256C14.2801 2.69229 15.1705 3.29465 15.9389 4.06306C16.7073 4.83148 17.3096 5.72376 17.7459 6.73992C18.1822 7.75607 18.4004 8.84182 18.4004 9.99717C18.4004 11.1525 18.1822 12.2399 17.7459 13.2592C17.3096 14.2785 16.7073 15.1724 15.9389 15.9408C15.1705 16.7092 14.2782 17.3116 13.262 17.7479C12.2459 18.1842 11.1601 18.4023 10.0048 18.4023ZM10 16.3606C11.7585 16.3606 13.2579 15.7405 14.4982 14.5001C15.7385 13.2598 16.3587 11.7604 16.3587 10.0019C16.3587 8.24348 15.7385 6.74408 14.4982 5.50375C13.2579 4.26342 11.7585 3.64325 10 3.64325C8.24154 3.64325 6.74215 4.26342 5.50181 5.50375C4.26148 6.74408 3.64131 8.24348 3.64131 10.0019C3.64131 11.7604 4.26148 13.2598 5.50181 14.5001C6.74215 15.7405 8.24154 16.3606 10 16.3606Z" fill="white"/>
  </g>
</svg>
