<svg width="20" height="20" viewBox="0 0 20 20" fill="none" xmlns="http://www.w3.org/2000/svg">
  <circle cx="10" cy="10" r="10" fill="#1E5A96"/>
  <mask id="mask0_351_11887" style="mask-type:alpha" maskUnits="userSpaceOnUse" x="0" y="0" width="20" height="20">
    <rect width="20" height="20" fill="#D9D9D9"/>
  </mask>
  <g mask="url(#mask0_351_11887)">
    <path d="M10.003 18.7297C8.80174 18.7297 7.6718 18.5037 6.61322 18.0517C5.55464 17.5997 4.6274 16.9758 3.83151 16.1799C3.03561 15.384 2.41166 14.4561 1.95968 13.3963C1.50768 12.3365 1.28168 11.2041 1.28168 9.99908C1.28168 8.7941 1.50768 7.66579 1.95968 6.61415C2.41166 5.56252 3.03505 4.63865 3.82982 3.84254C4.6246 3.04644 5.55216 2.42053 6.61249 1.96481C7.67282 1.5091 8.80579 1.28125 10.0114 1.28125C11.217 1.28125 12.3464 1.5091 13.3997 1.96481C14.453 2.42053 15.3767 3.04644 16.171 3.84254C16.9652 4.63865 17.5884 5.56499 18.0403 6.62154C18.4923 7.67811 18.7183 8.80704 18.7183 10.0083C18.7183 11.2096 18.4923 12.3396 18.0403 13.3981C17.5884 14.4567 16.9644 15.384 16.1685 16.1799C15.3726 16.9758 14.4464 17.5997 13.3898 18.0517C12.3333 18.5037 11.2043 18.7297 10.003 18.7297ZM10 16.8646C11.8998 16.8646 13.5189 16.1974 14.8574 14.8628C16.1958 13.5283 16.8651 11.9111 16.8651 10.0114C16.8651 8.11159 16.1958 6.49247 14.8574 5.154C13.5189 3.81554 11.8998 3.14631 10 3.14631C8.10025 3.14631 6.48113 3.81554 5.14266 5.154C3.80418 6.49247 3.13495 8.11159 3.13495 10.0114C3.13495 11.9111 3.80418 13.5283 5.14266 14.8628C6.48113 16.1974 8.10025 16.8646 10 16.8646ZM10.0014 15.5531C8.46241 15.5531 7.15382 15.0144 6.07561 13.9371C4.99742 12.8598 4.45832 11.5517 4.45832 10.0127C4.45832 8.47378 4.99696 7.16519 6.07424 6.08698C7.15152 5.00877 8.45965 4.46967 9.99864 4.46967C11.5376 4.46967 12.8462 5.00831 13.9244 6.08558C15.0026 7.16287 15.5417 8.47101 15.5417 10.01C15.5417 11.549 15.0031 12.8575 13.9258 13.9358C12.8485 15.014 11.5404 15.5531 10.0014 15.5531ZM9.99845 13.688C11.0188 13.688 11.8869 13.3306 12.6028 12.6157C13.3187 11.9009 13.6767 11.0333 13.6767 10.0129C13.6767 8.99256 13.3192 8.12247 12.6044 7.40267C11.8896 6.68285 11.0219 6.32294 10.0016 6.32294C8.98121 6.32294 8.11309 6.68285 7.3972 7.40267C6.68131 8.12247 6.32336 8.99256 6.32336 10.0129C6.32336 11.0333 6.68079 11.9009 7.39564 12.6157C8.11047 13.3306 8.97807 13.688 9.99845 13.688ZM9.99382 11.8646C9.47923 11.8646 9.04077 11.684 8.67845 11.3226C8.31612 10.9613 8.13495 10.5233 8.13495 10.0087C8.13495 9.49411 8.31818 9.05506 8.68464 8.69156C9.05109 8.32806 9.49162 8.14631 10.0062 8.14631C10.5208 8.14631 10.9593 8.32953 11.3216 8.69598C11.6839 9.06244 11.8651 9.50297 11.8651 10.0176C11.8651 10.5321 11.6818 10.9686 11.3154 11.327C10.9489 11.6854 10.5084 11.8646 9.99382 11.8646Z" fill="white"/>
  </g>
</svg>
