<svg width="16" height="16" viewBox="0 0 16 16" fill="none" xmlns="http://www.w3.org/2000/svg">
<g id="Puzzle-Icons">
<path id="Vector" d="M1.46213 9.06917C2.06385 10.485 3.20335 11.6037 4.62995 12.1794C6.05654 12.755 7.65338 12.7403 9.06917 12.1386C10.485 11.5369 11.6037 10.3974 12.1794 8.97079C12.755 7.54419 12.7403 5.94736 12.1386 4.53157C11.8407 3.83054 11.4076 3.19506 10.864 2.66141C10.3205 2.12777 9.67717 1.7064 8.97079 1.42138C8.26441 1.13635 7.50881 0.993253 6.74713 1.00024C5.98544 1.00724 5.23259 1.16418 4.53157 1.46213C3.83054 1.76007 3.19506 2.19317 2.66141 2.73671C2.12777 3.28024 1.7064 3.92357 1.42138 4.62995C1.13635 5.33632 0.993253 6.09193 1.00024 6.85361C1.00724 7.61529 1.16418 8.36814 1.46213 9.06917Z" stroke="white" stroke-linecap="round" stroke-linejoin="round"/>
<path id="Vector_2" d="M10.9014 10.9023L15.3999 15.4015" stroke="white" stroke-linecap="round" stroke-linejoin="round"/>
</g>
</svg>
