<svg width="20" height="20" viewBox="0 0 20 20" fill="none" xmlns="http://www.w3.org/2000/svg">
<g clip-path="url(#clip0_183_1441)">
<path  d="M8.86406 2.5297C9.00742 2.68884 9.18263 2.81608 9.37831 2.90318C9.574 2.99027 9.7858 3.03528 10 3.03528C10.2142 3.03528 10.426 2.99027 10.6217 2.90318C10.8174 2.81608 10.9926 2.68884 11.1359 2.5297L11.875 1.71876C12.0868 1.48434 12.366 1.32122 12.6742 1.25178C12.9824 1.18234 13.3046 1.20999 13.5964 1.33093C13.8883 1.45188 14.1356 1.66019 14.3044 1.92728C14.4732 2.19436 14.5551 2.50714 14.5391 2.82267L14.4836 3.91642C14.4729 4.12978 14.5069 4.34303 14.5836 4.54242C14.6603 4.74181 14.778 4.92293 14.9289 5.0741C15.0799 5.22527 15.2608 5.34315 15.4601 5.42014C15.6594 5.49713 15.8726 5.53152 16.0859 5.52111L17.1797 5.46564C17.495 5.45009 17.8074 5.53244 18.0741 5.70141C18.3408 5.87037 18.5487 6.11768 18.6694 6.40944C18.79 6.70119 18.8175 7.02312 18.748 7.33109C18.6785 7.63906 18.5155 7.91801 18.2812 8.1297L17.4672 8.86407C17.3082 9.00764 17.1812 9.18295 17.0942 9.37869C17.0073 9.57442 16.9623 9.78622 16.9623 10.0004C16.9623 10.2146 17.0073 10.4264 17.0942 10.6221C17.1812 10.8179 17.3082 10.9932 17.4672 11.1367L18.2812 11.8711C18.5157 12.0829 18.6788 12.3621 18.7482 12.6703C18.8177 12.9785 18.79 13.3007 18.6691 13.5926C18.5481 13.8844 18.3398 14.1317 18.0727 14.3005C17.8056 14.4693 17.4929 14.5512 17.1773 14.5352L16.0836 14.4797C15.8698 14.4687 15.656 14.5027 15.4561 14.5795C15.2563 14.6564 15.0748 14.7743 14.9234 14.9257C14.772 15.0771 14.654 15.2586 14.5772 15.4585C14.5004 15.6583 14.4663 15.8721 14.4773 16.0859L14.5328 17.1797C14.5468 17.4936 14.4638 17.8043 14.2951 18.0694C14.1264 18.3346 13.8802 18.5413 13.5898 18.6617C13.2995 18.782 12.9792 18.81 12.6724 18.742C12.3656 18.6739 12.0872 18.5131 11.875 18.2813L11.1398 17.468C10.9963 17.3091 10.8211 17.182 10.6254 17.0951C10.4298 17.0081 10.218 16.9632 10.0039 16.9632C9.78978 16.9632 9.57804 17.0081 9.38238 17.0951C9.18671 17.182 9.01146 17.3091 8.86797 17.468L8.12968 18.2813C7.91782 18.5141 7.63929 18.676 7.33207 18.7448C7.02484 18.8136 6.70388 18.786 6.41292 18.6657C6.12197 18.5454 5.87519 18.3384 5.70622 18.0727C5.53726 17.8071 5.45433 17.4958 5.46875 17.1813L5.525 16.0875C5.536 15.8737 5.50198 15.6599 5.42515 15.46C5.34832 15.2602 5.23039 15.0787 5.07898 14.9273C4.92758 14.7759 4.74607 14.6579 4.54621 14.5811C4.34635 14.5043 4.13258 14.4703 3.91875 14.4813L2.825 14.5367C2.50959 14.5532 2.19683 14.4716 1.92964 14.3032C1.66245 14.1348 1.45393 13.8878 1.33272 13.5962C1.21151 13.3046 1.18354 12.9825 1.25266 12.6744C1.32177 12.3662 1.48459 12.087 1.71875 11.875L2.53203 11.1406C2.69097 10.9971 2.81803 10.8218 2.90499 10.626C2.99195 10.4303 3.03688 10.2185 3.03688 10.0043C3.03688 9.79013 2.99195 9.57833 2.90499 9.38259C2.81803 9.18686 2.69097 9.01155 2.53203 8.86798L1.71875 8.1297C1.48535 7.91798 1.32303 7.63935 1.25398 7.33189C1.18493 7.02443 1.21253 6.70315 1.33298 6.41196C1.45344 6.12077 1.66089 5.8739 1.92697 5.70507C2.19305 5.53625 2.50477 5.45372 2.81953 5.46876L3.91328 5.52423C4.12752 5.53549 4.34173 5.50157 4.54201 5.42465C4.74229 5.34774 4.92414 5.22955 5.07577 5.07778C5.2274 4.92601 5.3454 4.74403 5.42212 4.54368C5.49884 4.34333 5.53256 4.12909 5.52109 3.91486L5.46875 2.82032C5.45399 2.50569 5.53666 2.19416 5.7055 1.92825C5.87434 1.66234 6.12111 1.45499 6.41214 1.33451C6.70317 1.21403 7.02428 1.18629 7.33167 1.25505C7.63905 1.32382 7.91774 1.48576 8.12968 1.71876L8.86406 2.5297Z" stroke="#1E5A96" stroke-width="1.25" stroke-linecap="round" stroke-linejoin="round"/>
<path d="M6.48438 10.0008C6.48437 10.4625 6.57531 10.9196 6.75199 11.3462C6.92866 11.7727 7.18762 12.1603 7.51408 12.4867C7.84053 12.8132 8.22809 13.0721 8.65463 13.2488C9.08116 13.4255 9.53832 13.5164 10 13.5164C10.4617 13.5164 10.9188 13.4255 11.3454 13.2488C11.7719 13.0721 12.1595 12.8132 12.4859 12.4867C12.8124 12.1603 13.0713 11.7727 13.248 11.3462C13.4247 10.9196 13.5156 10.4625 13.5156 10.0008C13.5156 9.53912 13.4247 9.08196 13.248 8.65542C13.0713 8.22889 12.8124 7.84133 12.4859 7.51487C12.1595 7.18842 11.7719 6.92946 11.3454 6.75278C10.9188 6.5761 10.4617 6.48517 10 6.48517C9.53832 6.48517 9.08116 6.5761 8.65463 6.75278C8.22809 6.92946 7.84053 7.18842 7.51408 7.51487C7.18762 7.84133 6.92866 8.22889 6.75199 8.65542C6.57531 9.08196 6.48437 9.53912 6.48438 10.0008Z" stroke="#1E5A96" stroke-width="1.25" stroke-linecap="round" stroke-linejoin="round"/>
</g>
<defs>
<clipPath id="clip0_183_1441">
<rect width="20" height="20" fill="white"/>
</clipPath>
</defs>
</svg>
