<svg width="20" height="20" viewBox="0 0 20 20" fill="none" xmlns="http://www.w3.org/2000/svg">
  <mask id="mask0_351_11901" style="mask-type:alpha" maskUnits="userSpaceOnUse" x="0" y="0" width="20" height="20">
    <rect width="20" height="20" fill="#D9D9D9"/>
  </mask>
  <g mask="url(#mask0_351_11901)">
    <path d="M6.24637 13.6849H8.01721L12.375 9.31533L10.6042 7.56533L6.24637 11.9141V13.6849ZM12.9583 8.732L13.6866 8.00375C13.8001 7.89165 13.8569 7.76203 13.8569 7.61488C13.8569 7.46772 13.8001 7.33738 13.6866 7.22385L12.6956 6.23292C12.5835 6.11939 12.4539 6.06263 12.3068 6.06263C12.1596 6.06263 12.0293 6.11939 11.9158 6.23292L11.164 6.98473L12.9583 8.732ZM10 18.4023C8.83997 18.4023 7.75035 18.1838 6.73112 17.7469C5.71189 17.31 4.82031 16.7095 4.05637 15.9456C3.29243 15.1816 2.69199 14.29 2.25504 13.2708C1.8181 12.2516 1.59962 11.162 1.59962 10.0019C1.59962 8.82802 1.8181 7.73492 2.25504 6.72265C2.69199 5.71035 3.29243 4.82224 4.05637 4.05831C4.82031 3.29437 5.71189 2.69392 6.73112 2.25698C7.75035 1.82004 8.83997 1.60156 10 1.60156C11.1739 1.60156 12.267 1.82004 13.2793 2.25698C14.2916 2.69392 15.1797 3.29437 15.9436 4.05831C16.7076 4.82224 17.308 5.71035 17.745 6.72265C18.1819 7.73492 18.4004 8.82802 18.4004 10.0019C18.4004 11.162 18.1819 12.2516 17.745 13.2708C17.308 14.29 16.7076 15.1816 15.9436 15.9456C15.1797 16.7095 14.2916 17.31 13.2793 17.7469C12.267 18.1838 11.1739 18.4023 10 18.4023ZM10 16.3606C11.7742 16.3606 13.2775 15.7444 14.51 14.5119C15.7424 13.2794 16.3587 11.7761 16.3587 10.0019C16.3587 8.22779 15.7424 6.72447 14.51 5.49198C13.2775 4.25949 11.7742 3.64325 10 3.64325C8.22585 3.64325 6.72253 4.25949 5.49004 5.49198C4.25756 6.72447 3.64131 8.22779 3.64131 10.0019C3.64131 11.7761 4.25756 13.2794 5.49004 14.5119C6.72253 15.7444 8.22585 16.3606 10 16.3606Z" fill="white"/>
  </g>
</svg>
