<svg width="20" height="20" viewBox="0 0 20 20" fill="none" xmlns="http://www.w3.org/2000/svg">
  <circle cx="10" cy="10" r="10" fill="#199F03"/>
  <mask id="mask0_351_11889" style="mask-type:alpha" maskUnits="userSpaceOnUse" x="0" y="0" width="20" height="20">
    <rect width="20" height="20" fill="#D9D9D9"/>
  </mask>
  <g mask="url(#mask0_351_11889)">
    <path d="M10 14.0019C10.8647 14.0019 11.6537 13.7729 12.3669 13.3149C13.08 12.8569 13.6301 12.2402 14.0172 11.4648H5.98279C6.36986 12.2402 6.91998 12.8569 7.63315 13.3149C8.34631 13.7729 9.13526 14.0019 10 14.0019ZM6.75633 9.20575L7.5 8.46208L8.24367 9.20575L9.08152 8.37965L7.5 6.79813L5.91848 8.37965L6.75633 9.20575ZM11.7563 9.20575L12.5 8.46208L13.2437 9.20575L14.0815 8.37965L12.5 6.79813L10.9185 8.37965L11.7563 9.20575ZM10 18.4023C8.84782 18.4023 7.76207 18.1842 6.74275 17.7479C5.72342 17.3116 4.82954 16.7092 4.06112 15.9408C3.29271 15.1724 2.69035 14.2785 2.25406 13.2592C1.81777 12.2399 1.59962 11.1541 1.59962 10.0019C1.59962 8.83587 1.81777 7.74665 2.25406 6.73427C2.69035 5.72188 3.29271 4.83148 4.06112 4.06306C4.82954 3.29465 5.72342 2.69229 6.74275 2.256C7.76207 1.81971 8.84782 1.60156 10 1.60156C11.1661 1.60156 12.2553 1.81971 13.2677 2.256C14.2801 2.69229 15.1705 3.29465 15.9389 4.06306C16.7073 4.83148 17.3096 5.72188 17.7459 6.73427C18.1822 7.74665 18.4004 8.83587 18.4004 10.0019C18.4004 11.1541 18.1822 12.2399 17.7459 13.2592C17.3096 14.2785 16.7073 15.1724 15.9389 15.9408C15.1705 16.7092 14.2801 17.3116 13.2677 17.7479C12.2553 18.1842 11.1661 18.4023 10 18.4023ZM10 16.3606C11.7585 16.3606 13.2579 15.7405 14.4982 14.5001C15.7385 13.2598 16.3587 11.7604 16.3587 10.0019C16.3587 8.24348 15.7385 6.74408 14.4982 5.50375C13.2579 4.26342 11.7585 3.64325 10 3.64325C8.24154 3.64325 6.74215 4.26342 5.50181 5.50375C4.26148 6.74408 3.64131 8.24348 3.64131 10.0019C3.64131 11.7604 4.26148 13.2598 5.50181 14.5001C6.74215 15.7405 8.24154 16.3606 10 16.3606Z" fill="white"/>
  </g>
</svg>
