<svg width="240" height="62" viewBox="0 0 240 62" fill="none" xmlns="http://www.w3.org/2000/svg"><path d="M79.855 37.101v7.785h-5.29v-22.72h9.224c2.693 0 4.83.69 6.412 2.068a6.83 6.83 0 0 1 2.374 5.41 6.8 6.8 0 0 1-2.374 5.41c-1.581 1.367-3.718 2.05-6.412 2.05l-3.934-.003Zm0-4.058h3.934a3.436 3.436 0 0 0 2.613-.944 3.378 3.378 0 0 0 .896-2.427 3.503 3.503 0 0 0-.896-2.481 3.388 3.388 0 0 0-2.613-.968h-3.935v6.82ZM113.439 22.166v14.888c0 2.591-.861 4.6-2.582 6.025-1.722 1.425-3.976 2.137-6.762 2.135-2.819 0-5.092-.712-6.82-2.137-1.728-1.424-2.592-3.432-2.591-6.025V22.166h5.29v14.888c0 1.395.36 2.428 1.078 3.098a4.288 4.288 0 0 0 3.043 1.007 4.192 4.192 0 0 0 3.005-1c.702-.665 1.054-1.7 1.054-3.105V22.166h5.285ZM122.01 40.83h10.346v4.056h-16.838v-2.372l10.161-16.29h-10.207v-4.058h16.745v2.28L122.01 40.83ZM140.499 40.83h10.346v4.056h-16.837v-2.372l10.159-16.292h-10.206v-4.056h16.744v2.28L140.499 40.83ZM158.115 40.83h9.784v4.056h-15.076v-22.72h5.292v18.665ZM183.932 35.166h-8.91v5.665h10.502v4.055h-15.792v-22.72h15.823v4.058h-10.533v4.884h8.91v4.058ZM201.487 44.886h-5.259v-22.72h5.259v22.72ZM220.685 26.224h-5.993v18.662h-5.29V26.224h-5.945v-4.058h17.228v4.058ZM239.938 36.914l.031.093c-.104 2.664-.892 4.698-2.364 6.103-1.472 1.404-3.608 2.105-6.407 2.104-2.808 0-5.091-.864-6.85-2.59a9.011 9.011 0 0 1-2.638-6.726v-4.743a9.216 9.216 0 0 1 2.537-6.718 8.802 8.802 0 0 1 6.593-2.598c2.871 0 5.066.723 6.584 2.169 1.518 1.446 2.377 3.501 2.576 6.164l-.031.094h-5.136c-.073-1.477-.403-2.575-.991-3.292-.588-.718-1.59-1.077-3.006-1.078a3.284 3.284 0 0 0-2.825 1.444 6.386 6.386 0 0 0-1.03 3.785v4.774a6.055 6.055 0 0 0 1.124 3.809 3.69 3.69 0 0 0 3.09 1.45c1.269 0 2.169-.337 2.7-1.014.531-.676.833-1.753.904-3.23h5.139ZM52.884 9.095a30.979 30.979 0 1 0-43.81 43.81 30.979 30.979 0 0 0 43.81-43.81Zm-2.389 10.699c-1.01 3.014-4.257 12.06-4.257 12.06-1.087 2.95-7.441 2.923-16.071 2.95 0 0 5.573-.787 7.186-3.9 1.614-3.114 3.51-9.417 3.51-9.417-8.584 0-9.35 3.005-9.35 3.005s-5.425 15.174-7.36 20.771c-15.035 0-12.632-7.425-12.632-7.425l7.52-21.093h15.236l-1.017 3.037s1.24-3.037 9.638-3.037c0 0 8.608.034 7.597 3.051v-.002Z" fill="white"></path></svg>